<mxfile host="app.diagrams.net" modified="2021-06-08T06:01:37.752Z" agent="5.0 (Windows NT 10.0; Win64; x64) AppleWebKit/537.36 (KHTML, like Gecko) Chrome/91.0.4472.77 Safari/537.36" etag="N2ombSyOhZJbNzFoGmFg" version="14.7.3" type="github">
  <diagram id="v1XUYiCEESY-PmMDO8Vl" name="Page-1">
    <mxGraphModel dx="1422" dy="762" grid="1" gridSize="10" guides="1" tooltips="1" connect="1" arrows="1" fold="1" page="1" pageScale="1" pageWidth="827" pageHeight="1169" math="0" shadow="0">
      <root>
        <mxCell id="0" />
        <mxCell id="1" parent="0" />
        <mxCell id="ZKtt7pXRlVkyNbNoVnik-257" style="edgeStyle=orthogonalEdgeStyle;rounded=0;orthogonalLoop=1;jettySize=auto;html=1;fontSize=12;fontColor=#006600;" parent="1" source="ZKtt7pXRlVkyNbNoVnik-8" edge="1">
          <mxGeometry relative="1" as="geometry">
            <mxPoint x="373.93499999999995" y="410" as="targetPoint" />
          </mxGeometry>
        </mxCell>
        <mxCell id="obYhBMBtGKUSiBPRDNs6-3" style="edgeStyle=orthogonalEdgeStyle;rounded=0;orthogonalLoop=1;jettySize=auto;html=1;fontSize=22;" parent="1" source="ZKtt7pXRlVkyNbNoVnik-1" edge="1">
          <mxGeometry relative="1" as="geometry">
            <mxPoint x="240.47000000000003" y="410" as="targetPoint" />
          </mxGeometry>
        </mxCell>
        <mxCell id="ZKtt7pXRlVkyNbNoVnik-1" value="" style="shape=image;verticalLabelPosition=bottom;labelBackgroundColor=#ffffff;verticalAlign=top;aspect=fixed;imageAspect=0;image=data:image/png,iVBORw0KGgoAAAANSUhEUgAAASsAAADdCAYAAADjGFQEAAAgAElEQVR4Xu19e8y9WXXW+VEYFObSaYmkMxgu5Wa0kJoCTYq1gxj/MJLWBNJETTAljYnVVmowahq8JE0wYWzUxKRqWkNrDE2K0f5jitiWNrGlloAaseDMNDC/hgpMYZiiQOcz6/2d5+V5n7PW3mu/l3P5vn3++b5z3v3uy9p7P/tZa6+99q2rq6urXf90CXQJdAmcuQRudbA68x7q1esS6BIYJNDBqg+ELoEugYuQQAeri+imXskugS6BDlZ9DHQJdAlchAQ6WF1EN/VKdgl0CXSw6mOgS6BL4CIk0MHqIrqpV7JLoEugg1UfA10CXQIXIYEOVhfRTb2SXQJdAh2s+hjoEugSuAgJdLC6iG7qlewS6BLoYNXHQJdAl8BFSKCD1UV0U69kl0CXQAerPga6BLoELkICHazOuJs+8D2vmdTuDe/70BnXtletS2BbCXSw2la+s3NXoPIy6uA1W7z9xQuUQAerM+y0GlB9/pHfHWt930u+vrOvM+zDXqX1JdDBan2ZLsqxBlStmXf21Sqxnv5cJdDB6ox6Zm2giprWAeyMOr1XJS2BDlZpUW2b8H2vftlOVbptS/xa7h28jiXpXs4SCXSwWiK9ld41RmV2KIAVbFKnAi9rVgewlTq3Z7OaBDpYrSbKeRlFqh8b0S3nUwJXB695fdvfWlcCHazWlWdTbh5QKUhphqcGLa5PZ19N3d0TL5RAB6uFApz7ugHVc1/y4t1Tjzw6yaIGVkh8TqCFOnXwmjsa+nsZCXSwykhpxTS/+sNvmQDU//ilL+7+6Hfe7ZZQA65zBCxuiIHx69793hWl17O6yRLoYHXE3r9169buv7z9zSNYqSHdM6xfOmCpeDv7OuKAu2ZFdbA6UocaUP2n7/623Z/6d78+/OWPAdIvPfZ1u5c889buBS/46u5Tn3rm8PiRr14Nfz/+9Bd2f+au+4ZnxqbOYbdwDbEZ87JPZ19rSPP659HB6gh9zK4JBjR//qOfGAALIAUwsqoYINlz/TDA6XEbdns4QnM2K6KD12aivRYZd7DauBsNqMwuZSCED5iT/favHnlq+Pn7XvLckTV5YMXV9JhZ1n51acDWAWzjAXpB2Xew2rCzasdnDDgYuKwqBjqmKmY/YGiWDwCRgUtVRk8NzZal6dbMK1uHDl5ZSV2/dB2sNurTDFBx0QCYFqDy2BaYE4DQA7CNmnyQLbdF2eCadegAtqY0zzevDlYb9A2AKtrdYyO5FV9T+5ZUEcwLrG1LpmVllADK8ytb0rbSu91tYivJni7fDlYry14ZVc0YzjYkTHR2b1AAWFpdgBerijUGxCwtso1FtrCajexYANbZ19KRc/r3O1it2AcMVJ5/VNYIHlVproqo+bWoZP/hA0/uvvNFvz85m6gqJvIHY/T+Ik2tDS11W9p1nX0tleBx3+9gtZK81T3By5YncUuxnurW8n4mbQtIwLAO4GG25jFJBrM1mGJLXTNt5zQdwFoldrz0HaxWkDXbqBSQWh04PbWJjeaR+rZCM8YsFAxKu34MWMigpvplWVapTVsClpbbve7XHF3z8+pgNV92w5utNqo5xR0brKI6egChNjfPJhYB8JobC8cEL5NPB7A5I3nZOx2sFsivBFSa7Vx7VQRUa6hTLU3/2Ve99CCmlscalWmpWshl1uxXLfWztMcGLK5fB6/W3mpP38GqXWYuo7IfPaM6Z8+RQFvAK1Il157sqGvpaE9NXJHKyOyK27NWG04JVJFMOoDVRkvb8w5WbfJaDFQzinNfsQm/phrlMRNmdfa8BLAAHWNg9sH5x1p71wArAFXWVlar01bPO3gtk2wHq0b5/dNv/CND/CmPKSCrLGvSPLLvoZw1Jjo3v8ROsnWtbSiswarOkUU1DqMxeQewvOQ6WOVltTOgsrAt5ncEphFt1bcCT7YaWt6agKV2qRLwMJOKdkA98F7KCD0VdQ1Znwsr6+AVz4QOVkmUsKuyGKD44HBJRVJVygO5OYwM76ytCrI6qBPYAxpWwbLtyAJsiwtFshtDlTqq+zmAWAewO73TwSoxyvWsHw9sNapHEQ8i47umz7KE7IRPNM9N4rkgWEItl88e6oTXNhvAmwqtedjxotvv//CkHnp+0pPLEiBh1hgtKHNlt/V7NxW8OlhVRpYyKk5eOlaCdLUdwhIr86pmHtbf/vDPbD0fdjCUtzihshqpYGAVBhsFG1SVTndLLQ6YfTgWWAbcS/ZE1ME7TVCzt1ldlgDklp12EwCsg1VhBDFQYaB6YFUCnBpYZZmUTdzXvvVbjgJUrAp6bMoTWWRL4vZz7K45oKNgFoGLB5QAS4Cfyr2Ul8eWWxeZLYHKy/s6glcHq2AUAaiYEWjS2oRDRIESYJWiGGBC4P0t7FPRJDLwaWVx3hnBLCjwYsAqYBbMuR0eWHlqZZROZeIxtTn1OjZgaXmXDmAdrJwRZEAFdUEjeXoDzlMposmD33VXz5sg+M3y39pGtcZE0thZ2tZogmvY5ywQlOyFKv+IHSEdq4eoD2xs2T5TwC3VYQ15L83j0sCrg5X0+N+475WTW2bYXqIsS0MJe7tnnL2qMS2D7dRgVfJt0phUnsFa1SZVD/nuRAVyD9hRBtu1Suqasii7TYhdUKx+2UPZkd1KVUmPUWfGQG0haxk3rWnPGcA6WFFvwo/qz73hnoOjM2BYlhwApu4LrLap2sEsKRqMXiA6BI07hlE9GtgAqlL0BQWoSO3iycry8mRZky+YjAdS3m+WH643s2vP/vrnPpaayxFQl8BoCbM+J0P/OYFXB6v9qMItNPbVVnndiWKw4oEYAVc00VKzw0l0zswqapNNOgAE7kTMtl/tVnPsRtGk92Tp+XR5dc16z5d2DSOQy7QxA2RZGc9NdyoA62C12+3YmI7VHnYLUxfsYyoD27HYk5073QMpZlVzB8ixwSozKaOQxDwZcdWYXdLqgbwnD8/htmSfKqllJXtf5DrBKqH9z+msH/RWbW+jpQRWyghb1b5a3nPH2Nz3jgVeNx6sEOHTU9NYbWCwsrRseI+M8TXjfNaQjMG95W6gghOv4Abceh6yNLDxrgE9LnBlcC/JhRks7Fhqb8KCkplcDKgaa54nfWkxKKmB0W6n1i2yVYF9Wnq1jyIP75q1VoDLyGrNNFsA2I0GK/VM10nEg0T/h+3DOpivfeerr9SIHDk31gYJVNKsjaWWnz5nB1CdPMyM/uOXPz9exgoAZSaq+Vp6Y1T21z7MrvTSV/uuqnYkL892FqlH/Lu+FzGUmpqYZbne7qhXH0/988BO7YK6wGJx1Zj5reOhJX3WbrcGeN1YsDLVD3YRZkbe6oZJBHaBzsSOkscUoonHW+SqDuggweB8+P2PDxN9C7CyCWX58wcA87Jn3DswIwANQAe3R+M9+w4WZe8YePPH21H1mITlgXfnArs30TxQKtl+smDUMqk5rclcD4IzkDIAzGHTHktuYfFz25UFLuTfCmA3Eqz4cgdlCBBkZOz0joBEneuBnPdbzTEU76wFVmBSYE3MevhKe48V8YaCsUsFM3tH87B0DEK1nVVvx3DJBPKM9ZbfA2/81t1Tjzx6dB82PfyN+s0BpppcMrbHWh5zn5cWBE+NrYHXjQKrX/3htwyDkxkNqz3s68MgZv9jAqkDY6YjPXVSQQv5s40FHYr3o8HshXZhBsf+Q8qiAFQGMGCKADFjSebGYe+ATdnVXAAeVoUtHwMuewf2PfuNXQWYTWXteZndrxZPew4OmOm7rdIwu1qrjFMC01ptKAHWjQErBioWbGSobPld00bfDZAw2Q0casdKMmD1T77hlQOTYXYGtZF/N5CFGmeAYh8GFdiMuF4MKMx21B2htAOaGcQlR8kWu1KmrJuWxgvhw4uvp0mcSkadWe12OwMqfIxZeYZK3X5m5qOdFxlEI7bkGdq9Ce6pg3hXWdUP3fsKV7ViuxJUHfv7D3/8l4dmwL4EsLK/JbDxVCjd/VRbHiZDJCfLEww1Y0vxAGtru9KpJuxW5UZ2LJ4L6OtMnyypp8eWa0Bl5V17ZvXRH/s7uy998hMTsOLVRIXueV5rerWpeB2nHW6MCh/PQVLZhbIznpzGpmAHYhsSgMrKgTpmdhkAldmT+D0wJEvPXvsqA9S7tCHBAMYuByV7XGZSeDt4W9h2lky+S32X/cVO3YYbD1ae6hdt/zI1juwkmS1mndj4rnYgLoNZhqd+KoswsMLHUwFhazKAhAHcGBVvbdv77PDqMSxdadm+Z+lLu3wlIMrYoSz/iD1FLCHyqTr1RDzX8rcGK293kOcH/s8A1bVmVpGNyhqtk44HU4YVeEZwBjsdnFaegRXYzjf/5TfvPvOLPz8kiwLMKT3niQsjMZfJhvO3v/HBg/nhDZySkdtjVxHj4sI8VVjVuMgOhXw8g7lnPFYZtYDVFgbucwWlbL3UUz9jsIfMcYYVG1hRmbpQZYHq2oJVCagAVswk1CcKrMEzgKNT0BnZzoGaZGqZfSyMr2fARr4eA+QImzzhAVTs46SMi431HiuqDegSeKm9z7Nzqers2Ue4TZ63OfrMq78yuWiHsDYBuy3MHwk1FtYKVlbK93zk47VhN3l+7WxWeksyT/5IMh5YWVr1vDbWVeoUfaYAgfcN4IxR6U05XD+wPz0obZOSXREsHZwpeUcPExuHsvWZyqLmSlAaVRnbkzK7yJirIM1t4wUGrFLZFRYjlpP9VgMpS9OBqowdGRnW0AfjoBWorh2zYkblxViCID0juhdlAU6PYCzMVmAwN2O57oZh8lodwKCgXnL0UAUIj6GgXsz2FKzQLqiaXCfsvFn5Vme9RiwCKQYTtaMpla+pdbUBrM/Vm1sZZZRfzU7m9Tu3pYNVW0+1gBfPxxbVj2t0bZhVxKgi8UfGP528uq1vA5539nAOC0wIbMzsRs/7k3962IlkVZHLjcDKS8O7eJiUmFzYHYQxHTYrZmdzmVO0O8qTPAteDGq6mLQCBYdQrk0xgJ/a/VRdba1Drdzr/rzlgLfJAprH69793lmiuRZg1QJUOrGgNrD01L4ClQNpOcok3jMwYKfL733bq4ZHxqx01y1ieFwOygJYah5Qc2zAMHjae6XggaXIpzqCWp09a24KnuxbvM9RP++AcGn0ZyIqdKCahR+TlzJMay6ruhZqYG3XL2NPqXWTZ+y2d9QVAGqYgQWYA6tx7Ael7IfroN7tUf3MWK/37Vmd+NgQyod9jH2rvEPDJVnUdgO9DQlliajbEnAAWPGRItTb23nkxcH+X1J2baz051MJmGHePqZdLAGqiwerEqOKGFQNvKKAcjoIoWLZ7wwulr9nl2KgMp8nZmT2P5+hY6O65q/14EgFXswo5IujNVYPRFPgekSTzNvZ89JGu3vMFuewqKhe5r7hnTKIDO4MWB2s7kjDY0Il37Ylcru6ulqM4xerBkZAVYteyWCV3W6NpIyJwfl4thyET7F8cCDYs0sBmBTIlGkxo9OjLxaZQc+DQUXljYI5DKrGrDhPTmsMcIsY8mBYyD9SD7sRPQanFgRRDaN0kgBj0ABuDaC6WGblAZXnqKm7a9oxNZYVdaT6WiGd+lxFzqPsKsE7jmysL9WVVTtLZ2pntOohIgO82RHCpQZWpefe5oSnAloea7Kp7MRi4zvqetOP6ERhaTJzwNNS0BfqD4ffl7goRP18ccyKgcpjUbrNrsLz3AOykwCTj0EpAi7O8w/+4ZeOu4Jsw7I0GkJFL6vwBhNUUHv3x77wv1LVtx1DVgE5lEt06YVlrJsNHrtSOxlXaInqkGpYkMgmJ/pmC1a3pG6nepdtfWDxGbCytOpOUhoX2DG3xXeOP9W1AKtSmJes0E0QygxKu1g8YVuZFkBKmZfnl4Q6scqm4Wk9Y3UWDNS9Qb3dl04gbxHI1m1p2d77rIZskf8l5gk7H2ybtTnD/nyZ9ipRWGpQ1zIvhlmVbFQKBhnBtqTxwIXfn2P7KrHCmrOold2q1mCgsqHf8lEje0119uTmuXq01q+lPzJpM0H2bhKg8XnSEhOGbL1oF3hWAjnMlbWBysq+CLCq+VFld/BqgzxSIcHGvE7ig5xqs2KQ8xwnI9bmGd/X2PK38qAO2v9mv4L3vbezxvKK7FTKVOH/VZP1ls/1QK5XFs66WbtODaxbyoLbWWNSXj3UqK55eAv5FkB1EWBVC/PCrgLKdmqHjKPOiUBkyaDygMtbqRgU4AjacntwrY5/9u5vGpOYrxern3wzT5QP7GXexRrnAFRWbzawZ8PM2HunVFtr/db6nAG7tAjXFiR77jkHRxsqWwHV2YMV3+nHfjyl3YnWTkX6bIdq/jUVMRoMUWdzehjjjf2sNZEAVroryDuUClqevBnkrM5wr1irnnP70d5rUQGZOZwrw9KjRSrj0rEXlWM07rAIoS+xYLfMiy2B6qzBCozKhGUMA0dISsbwzLMI6Fo6Zc5EqgFsZHRfawJhwLPPF+7xw2URaBcimZo8ER2Cfysdxl6rvnNkzEBV8+2qMY9zAF3IIAIjPnyvIKTjmccf/x/lwWDFRCHqFxsTc8/8Zfv6LG1WbKNStaMGSF6nRKtEpJpldfsaAGU7AenUL8vYzlrXb/FExo4js6voHCBUUXufAUvlDGa2Zn1b5Yc2wjSQdVkwMNBJi7LPAbQiT3OzP3rx7/mcKvrYcznBvLC/apti2Wfmw9as6iyZFYCKVSAPVEoriQdOpYGfMRrOmTglFVGBLvq+NlPhXUF406NtPGCZVXHbjeGCbVmUB87Dfj8lWGUM69wWHALnS1k1aOGpwUqvWUP9+ZYkjccGR2PrG4TTxq5v6XB6xKBqi/IxgOrswEoZlQci6CxdKfDdC+lSEnYNNOaAlE5+Xrmi/Dxg22KisCezDWQFLKufHsLWyyn4clR1fUBECja2H8tFoAWs4Hdm7cW5yegW6C36ITuuPLBioEI+OIIF9qtHrCwdq/uIa8bzyauTEgWdk8cCqrMCKwUqpqgsRJ3UkS7OOrtS2ojysr9QhvqWBlzNNublr3aGrScJ7hyMZB2BrhfyxouX5a3iazNF7gNs03sGaD2ixGyKVSlvsdu6H6JxpIZ1Hh/sKwVTifrQwSZpvzOzQnkAr5J6z2ND594xgepswKrmR5UBhShNxLhqK9sSsMoAKgZBtHIdY4LYqs1MiFlV5OiqxnWES+YJwKu9Xpq65a4hWIi3UHF0CrAM7gMPsC2fGriqPWmtftND2VYXtIHVPKs3M12NqOGpgRyJQ2Oz8cH4iGlamccGqrMAq/e9+mXFm4lLdh9lXB4A1QyL9o4yGmYUNdZRAz3kX9sY0HzWGvSl+rFXc2kFVadbhGvmvNVuooBg37dwxeA6qJc2MwdLB3UWdastSDUfLW+hWaPftF8YjLi9uF6N7woAwCiAcYggywO3ctv/qhIyS/bmj/1248Aqw6g8sFLVj9U3nZwlo2H0Xm0QZwAqSuOprZwWZa8x6GtApe0vtVsBXQEMqoiCgleHYxjhMeH1wgndmCnJSPuA1Wa8x2pjjYXVxg3H6LK0Xgw0vtLN0vB9lBxM0VPLkR6H2NnpGAfoAejevQK22NjvpwAqq/vJXBfYjyoLDjVDubdDWDLSg014aoO9t9YxHh6kJYP+1jYrPnpRY4wlmx/ao8yixLRsEpRC2dQmcstz9tK393j73suHmaK3WPAhcLAZjlSBiV2L7xSZB9j3DfWDOge7E9igxjLjCLDcNlbhWBXkBQpghR1eb6HhfKzsv/bZ/9nSFaumPQlYla7LyqpLHgWPJlgksdpuI97LglYJTHmCl3oQgLt0leYyeAewZWHwdlw9oNL2gGVp6Jk12+TJUEEKaQAwHO65tIBwDC7Y9dgIXXrXY8TKmLyQPBqg0VPFlC2xvYmfsd1JAYz7HzeBIw2fD9VblSzNmuFe5qDY0cFqDlB5DYvsTJZWn0WqV019nCPQqK6lsvQdS7uWGmhsyuK0R+pPySbogW9J7p5RHsC1pepnzMc+fGGHgYt9Z8dX7gNMaA+8AVbIl/tHAQ/yw98WsOJ8wX48JuWBm7fTGvlQWRsBTF57dZG3NAjWaAzPmNepVD+W0dHACiBVGuylVTuaVJFahbw8AyE/U3DTZ3ieZSQZsEJeurKtzao+8o//9uQqsOxmhdcPJZWP7YLav1ihtwArZlI2yQFOqL8HLKUzkPYeVMLI5uP1b83OCNDjM5csJwAVDpazLcnKww4qjxfUz1MD9ZC5Zx6xfHlMKxvm3dNTqn5HByvb8WMQ4F2hEnvhVQvCjVgSC79kb/HAMmOfYVCLViftfF7JPdDUlXBNNYlvFZnDELMqbWkxsHLXPobjqXpY/XElmTEBAA8ib2AyYvLrYhaxLm9slNTjko8XA48HVmBVMHLr7iWPFxjacYrA8lYblLoewEAeaR6QCXy4AI6nVv9Qr82ZFYd44RuBdQJ5AyADOiX1hsvwJlVtoq3BpkrgyvVbE6gy97fNAbDonaifYAxew7DuGc1RH/XlMoZlLMU7cG3vqEe+qoSYpABahIPmK9a8flWGZQvGv/2XHx2qiZ06sD28D09zNdx77ArthX3L3uFD/pGPlAEbgNA7S8j9yoBo7TkH9e8oYMUhXtR458VDwkrs0fcIeFpsQbUJyuoM0kZqa415RBPYq8NSoDJwshU9OkdWa3f2eUmN9NTENVhVtLPnMSMDGditfuT7Xz82y2x26gemu1wchJAZjWUC9VKBpsSwuC4GnKpNROoygBdHahiQmalqXZCOgQm/YSdWNRXOD869nPZcGNXmYKWGdD7VXjIOMmBENp2IEdWYUnZSWrosq/IGgKf+qQ0EVHuOId1zfuTJ29LObFoPqDzA5klobVxiq9KopnrIWBcUyPi1b/2WnRf/3ltAeCyqPcv6kQ3TxtTAlPQmIow9tiVZ/bzQRpClZ4PSRZwXeZa3zg1WCzn0T2mucNugQhsDPKUvVWk8bqIGwkYV7U4A0YHmPAiZHls61btralUJsCJDI8ApYlE8KSJjMufhrbgeWM9hVGqsLe1qZYEoky4LVpYX5DinfVwXsCo+LK19yD5SFsPKQOo5L3rl7vce+9iQ1Zc++YlJ8/QGa6/tACnP410PEVvah9//+JBNKbJByZ5ZMvqz3L1IJPac/ahKDJLnncnq137yv7nz69wY1WbMCqofr0o6IFQljOg18rD3a7p2CSx0QpfUmWjiZkEyq5a2TmSAlNpbuL6eGpsBopY0nrqnAN7aNq/8H7r3FTszHpfuObRy2V3C/jewYpAyA3t0f2PUbtja7DnfMOSNGwCVukgw42a2BaaFsnmMK3NU5uqxeM5HWa26PETsnss5JxuV9s+qzMoYFQukxKyUffCKwHfnWYVZj+YGZPOHypUBouzEjcCrBFZqgM2WZQwDZ7mMpvM18QpWzGxUHc2Wl0mnLHQtNmVlqyMmMwJdlGr3NnqXeGj7orFo45CN9AwMkDO7HXC+qnJypAqUZ+wG9jQ95hLZT5WhQR7c75CX/fVsw572AeDfOtpnZmxFaVYDK3ZP0AnkqVee/UArCZDJpM1M2iWC8sDJGzheGRgcNcaBizktwiXbayxP7Px4h07Zf8cDK9SpZGNSkI2+66Tg9tbal5W/d67PsychP75hyCvDAEtZSYaFMmuz99nOaHVU/ygGs4i9KzNl1qV96wFRCcR0nnighDawWQLlnDOrsjquAlas+kXAorYGDPqIiYCKgzZHjnJWHoc5ydidokFgv3sqQ7SalWi5rsIZQzpfQmnvQw1SFdhjlNHkq01Sb5eq1l7PX8fquwZY8dEU9jdilZDrp+CkTMuAyvPerh2h0ueenNivieuhl4Pq2UN4h9s7OFRs/3txwrx5w2V5C5DKRIEJz3kcnaudituyGKyg+rGvS20FjRiJp1PrNrKVg+1ZMAq9UKK0wpQGuldvz0ajK2jU3pLap9Ez+WgH4hWZHcRTgVVOAF9vNY9+43cUvEsyKsl2CVhxHHS2YVpdMLlxz2Ekb08lhBrI4FMDqih/DtsM9hft6qqvG8uNw7eYW4N9GMDwW7QYRv2j7F/NAB6RsDQPPfzmSZOf8ZK/tbu6uqpN46M/XwRW5vCp586sBSVbkk6sEhNjaWAXhieyPY9AEnXgurQAVaQyaR61AaWMigc56g8WifNsvOJ6wKQyzrarBuI1NRGqEOrN/TMHqGCbsnxMBeJwLjzRWvowsmF5oNUy2yAbaycHxsN4VjalDJ/ZDYd5YTC2vPhsoLlgQIWtLYge28q8o0AVvXPrxe9oEdcmaWeDVe1AcsnOFBn4ImbDk5knOFwfePKoumjPotP2LRJVhhWBluWJtBmg4vqCNWLQclC1yAkQbYgAS9Var96ah67Q/Nw7jd8KVABsjsWE4HBWFnyzFBQADLV+K0U5xbuZC3AjuxPyUHCPYnyx8dyTnzdmeUx786UERDXbleVndX3tD3xbTZTh81OA1yywUqCqdWoEQvx7hh1wJ2g4VnufBwLvmOGZGqJbeiqawFEbGKg08iNfb4X3YZPhyAE494WVmIOreQCTUd9UBfdUcnYtsXIih14wnjlgpe4BmheHtVGQythpuF/UAJ8FKq9vdayX6uIBk+WpO+bsPc8gVQIkLIqeBqHvefbMpWClZRxDdWwGq0x0zywIeCtACdhUveRO8JicTjqoMXOZVqTz84BVkNJVUaMzwnPYgAnGVh3Marfi5x74KAuMmJNOxogNK7PlCdUKVAZC6pvEQIVIEV5YG/RfzZM9s/DpOItAyJv4/Jv3HquwLHtd8LQfI5MCA5z977HsmumFAX9toIrm+9rsqwms1gQqNFB1+wisMlQYHYa02oHeJM+Ur4MzGsAMVFHAf3sXgdyUYZWYE1ZpjbftTUyvTaWJEE0oPtKhgd7AUjNgxSwJwMfb9PabqX4sMxiuMwtEax96QKWAzowSfn+l0CsAAwWkUv9kzSElkwrGNGl1YiUAACAASURBVOofnblF/Y4FVN48XgpeabDaAqiyDAyUNwNYHtvKgJfHwng1YnDVeth3z8CqrEfjgQNM+Xel9fzdG5AexdeFwFvpPYAqrc6qdtv7GaDiUMo8sTS2kxrReYLqJkPEXKKFzuvHEjvCeOP3PDNACYg8WfK44TFj5SC+e9SfJdbrtdsDLXNCXWKnapmvB2nvf+BrPz1xe/i/FbxSYLU1ULXYIGorV8a2pBPVmwwltUAnlgFVLSyLTj4v+qPVS9mhx+JYHYIXNE8cz+vam3g1OahcFGyyMcfB0BSUuW28WWK/s6qXiX8WjaGajUnfK+UDGVp9oJozsKk8o0US6VR+dlIB5wsZkGsApuzKW9Tst+/+xXdOh9MeNBaBUOvLAC0pOwNcVbC6detWdSK21lfT18Aqu6ph4OgKpgMqsnUxCCnT8vKurdjeO54a5A3qlh2iiE2ynCM7FtIoEKGe9hxHfFhN9YDq4+/717vPfvDnBneWCHjB0FAeYkXBdYFtdyoDPoblnSdleev/aGdmMYsYfImhRmMhUmMtve4W23lIqMeRGpzRLjzQfOgnfrB9mh4RzBaDlQGV96mxiHap5N7QVdIbgPyb1+G6SnmMx9JgNTdfFz2pr+DgrYIYvDpYo6BqJRajK6WqHxHbrMmrJnUrh/3bAFz218DCDOXMBLyJqWosh+HFZZs4pYDr7AF0YC8aSiXyrSv1rcdOwFCtvNIZOlXposVQ1X4eA9EzHa+oC8auyV8PP9f6De+yz9lrf+RNtdd2OwYnY0BHAqsMUFnlU8yq1spTgVdUr5LBVVkcRy9VcFN1D6s1r6JcFgf95x1HTuMZqgGOJeMoq4dcD5YBMzS9El0npGdTUcDk9rBLha3++oydGRlcOU+Wr8cwAVKoq7II/l6zCUV2Lh0z6BtNj7po+KJoYdIx4dmztN90fCFgny0AEfBG+XpjE2BlZ03t8/Qj79qZi4H93Tk2pFE2+sxT3QJ1roYV+jwLVCmwOsg8YFuc7lTgBSaRsUMoC6jZraLzVWi3DSJsyePON3vGN9+aimMfhBNRtZONzrCLwNfKM3BjgoAhMEDVJrb2q05+VgNtZeeYTQrKfBxGbU9WTrTVrgCqwMvfS+yR+4BZmMeAPKBXFRj5eQCmDIm/s+3S87Pj+ug5QGbzLBcPsD1AgHzMhsl+ZNGZ1KefeM8d5hQxKAYsLhDvaCVmsLAWoJoFVnPAyxPu2oDmeQ97NobSyoSB7A1y3cZHREVemfkGXW4z4mtD7WG7RBRckCcgG9RLbEMnu2efYVucp7ZZHmxP0nYg/jeDrhd9QHc+MRlLt7EwOJT6rmQHKtmkvDw9QOI2ewxO5Vw6pA53DC275NRciqLhqfaRzbdUrxGsrDHKkhSoakDUmn4vwKOD1VrgpfksBTPt1DUNq5HKgDZgsNXuggN74csEdCJmJ1ikSiq4sTrJcb49O5BeNMDM0doKfzEGK75vzgtnE93YorYtjyXqIoI+1t1PZZUlBhexKmZXkRNxJpIGj2Orr21MILKEFyFX5wGrgzyGS9FBUI5HEkq/QU1EmgHQ8FkZsFqBahVmVRNIZKSvvbclG4sYBbMKDPBo5a2tuMjLC5SndhxV/9R2pROqpLJ6q2yJQam/E09SBl/Ym+w3eN0DjJgl8CFdvoWlpGbiXCBUyIyHeqmdAHg9JqSLCcuV+9vKZ2aY8ScrjecowoYn+5La57EqK1d/z4Boy/ybgJa9WAOuSuZzgOooYHWuzEvrxaoWT1hPTfPUxJJqwmXpJNO42mp05cFYAllvRfbKLYGsqm78PjM8ViU5Tcmux2F97H32xFdAVyM2ylCbpP0eqYtqx4va7S0EDCJrT3w+J6r2L7SH+1kN7TWQMcYFg3otbcvzA8CaCVpzgeokYLU2eEXqoh59aekYD8h4YkR5RbaDbNk8GXWFRR7R7x6wKJCUdhs9sCu1R58BHDgfMBTeWLDnDFRI7x1laZFzC1v21ES9WNRUv7WBytoTgRUDsvZly7jaos7aD9XdxKDjlgDVWYDVFuBVM3hambp6ZQGlBIIRTc/mzek8FhHlk9lIQHuhznm2MW/CeyxKWUupfepXppsQ2C2FL1FUXmS7UZnxd91ttWcRYKNc+HZtxVDYXoUFkPvaM7xbOkRn9cYIfjsGUHH5LttCAkdVvHZgtTZ4RRMJK5xOdN2KtvfV5sC/zQGilndaVD/L17OHqVrFeXrqEYCBVSQ2MvPOKJdZ2+1Eu1kNtN9w/TuDoMc0op3cFhlFdiorj51Ut5r40biLQBa/a9u1zUvtai1j0ks7sC37BP5bS4HKsq46hS5txBbvr2W0ZxVSDyJn2NkWbdM8WydidOaQB31kX+MVXic1WElk7Mdz2L24HRGbyd53p7Ydb1dwbl/wjixY1VZAZXVUZqX11sWmFM4I/bVlfefK1d4D87r19X9xSTbjuxcJVtzyq0f/0eCVe8zPUreK1rqyzcIzvnJ+HlOco/IqcOkxGY7syQZynvywWWk4GN71U/cOtnMZ44J7ROSO4KmHWfkCWHE+0d773re9ahMDNeqkgRjt9xL4eps59g76dA6jKtmcdC6BMc2dY2vGcr9osDKg8j5zBVsb5McGqVp9eNBi0GfeaUkDT3p7h4/Z8NVgnlsCmJZXFnzC7JkBhV2QwDY1PdqDPNglIWJr0QYE28IY/HHExeoAOxWr/ZkNnBZ54govBmJtH77rLUK6M5i1q40qGle0dqQGnu2OJ/sz7v9LYZMZCNdiVCjsYsFqAKqS5y0Z+NYAL/VEbhmgl5K2ZGC3NmRuxY7aGjEj9t9SW5oHeJ6a5O1MMgBE4YW5rgq4Wl9PHWtVvzCGSu4jLA+VpbYzW37REG6FYK5ER2xQET5q88TtUaM5cB7dA90adiqWwUWC1QSoWJD2v3PA8urxT+9uPfj8sd1zwescmdVaQKhAhQmFv2BDWfeHOc6NaIvVBbuIOBuJZ1wfZmMRmDKL8+quNrjI96kk5wxosPpXAqtoE8HKt/ba2T/7tPpSTRjPfQ/urh770J0mFc4GgkFNzhFWBtwty/vzj+/WZlVW7MWB1YHqVzo97gh2Alz7d0u01usbBq3oJpW1QGTLfHSlZrCw/5nF4HsWrDymUmqLun3wQW51b7B8PHWPdzG983URgGaC+3Hdta41sAKj0puMPGaHYIp4puCVVf1U1iP7SXif82Je9F4PmNgWQHVxYBXZqFontAHW0HhiW5xHlnldZ6alwKUyLjmnRkAS9RMb85lBwVGTdzjtOb57kQu43mzjYe/6yA2gxGpUHkib2TWGSwZcIywvbBxwe/V8plefGjB6Mm4648cZeGAkquCkvPsf2IRRoYyLYVZXv/tT035YMVCYqolDQdRRWeaVAa8Sm1EDqq7g0butYO35WXkTWJmKx0w8oAHzsb/6XHcrte6l4y/MqKJ49mpIx+4knz/MgFJGpta2aDeOY6rrbT7q3qFHuhRw8b0VqCa7fiVGpapgzXaFCglwrW2j0j64CLA6MKbzTkWC1mYGnq4Qw3c2PNL/a4IXD0wM/JL/FwPYXPDS3TDv4HAElAwYke3FA6SS2say54kMFwcOZ4y6wjGVHUwRJ0zzs+8cbdPqMvcKeQAwyvAYFnypLA1uEOfdP9QZAQvZmVZtZvjeov4duCawQIL5cutFrxlsTWOMK4x/Ai7Yo8bsZsRRb56L9MLZg9UBozL1bW/EKwHK0pPhyq4mZTHzol2RJR0x990Mm5ubNwMpg5Tmx0BUUg+Rh76vhnIv6oRGZNDr2BEzTK/Nwu4a7wjOvTeS662+b9xuRJsAQKE8Dsnj+a0pAHJ5Qwx1Z6yFtqg9yIxzRYPmyQ6gpbPPAFgKbsy8eAOL/t+aVVmVzhqsRhtVFNyrFOWwxriid9FRLWFbJW3W5rUURKL3twQwVutKDCoDWrDlAIisPXCP8NRSAA+rsdjtYzBjuTD7UybIUTU9JqlquSdvvKdx4udcRMry5LInlz3U3Awcm9LImvYNADA9+dXPDL/c/dT/mzKqaGDpnNrIRSEq/rzBam+nYiY1WSm4VTUntxIyeMCV9OGanIVCGdKp5wJemFhLVKBowvLvkV1KAYztSyW2xQZ19oYHUNm7XtQGBjU+2uOBWaR+1RYUsyOpV7ruooJRKsh67MzS8u8Ht9Ls2dV4lIW1jH1lf+X/fnX384/ftft73/z0WH13Dgl4HbAqe14yqM+4+68mz9LzswUrT/0bG+KxpoJR8Oq/fzjc+SsKr4VdNfTCKcHLWBeD1RrApZOQJxwmKovHS4/nnsGeQa7ko2R5eLHq2cjOwQEtveeU6jlmqn3Qsx0iP7TFi4XmyQPyUsCc3POnG0oy3sCW7OfBz2mv1kXDEmk47QSsIpCihf0Yqh/X/yzBCkB1YJsq7VJ4OnmLDxYb7bWHayplA1CNSYXNnRLAUKea+qiqktfsaHdQ00Y7cgxkEdB5zAX5s41KPe5h2ObbY/CeF3iwxLZYhQVIRapo1HYPtLF4GGPzIhmMTpf3PbgzNe6eZz7voBvsd1PtOK2CWIpFRa4L+xJvPFhVGVUEQJXt1uJOhsegvO3cLUBLh9q+Ltkdxzk4ueY7JYDzgMezeXF9NPyMV1dlPloOgxxAhfNhG5n9zqDmXZVWYloMVJ7riVd/gKDexMNpH3r4zV/7av5LxJRGVmRe6Pvx8sXnPnsArl/+9G8NKuDL773a/YWX3rmynYFJDekHZpVoHh3ZTcGT21kxqxGoIBj+y7XP+oHMnZXK0pDPUrCqGfWtHEpzDmwrI8IaI+M8InYWqVURANSM+1amB2LKghSs1CCvu4vsewaQ43c8NlazTbF87P0BqJwF9IsvePHAmMwmZZ/XP/+FAxC99dfu2n3ysXt2/+BNn969+hufu/vClz+3e/TJZw9p/sVHnzP8/dHveGL3wFeeO/zv7fwpGB70O83FYzMq1OVswMplVJ6e3gIYqtpFer/usETfMzN3SZoz21Wc0xQFrprq6D2PGBnqU3LqVDU0MvZr2ywdX4TBIGl5qrd8xohuZXBdTbUzZ1H7eMeWBqD6iR+cgImBiLEl+/zWk8/afdcDXxz+/4Xbd+/e9KK7RnWP2/P47/3m8PXB57x8987f+O3dB//r/bvve+hzuxfe85URzOyZfcYdwU89Og2ct8/wgImtFJtqztg6C7Aqqn7aKm/7FGmUkdnvEUsr0V3k12LzmiN97x0q81JUwajpGhWzJqIasNn7ysAi94KSQZzz4XTqfgBQgYHeHEvtwxe+eqBXYnQeUAHQ3vCzXwt5ZCBiDMk+9971DZP/Td376U/cHp4ZYMFuBeCx72qTMjY2MLHHPrQzhqYf2LgAYIM7g3y2OvNXGxd4fnKwSgFVpJYBjCqTPiuMIV3kx1LZwm0qI1nfSwcra6YBVsSEcINxy45kCdDUHpYFv5a+s7bo7dTm/BldXBvlrTJ5zXvfMdqcXnzPHaAwkPKAx56FTpzkNG1p2AhvjMvUQ1MVAUawdQHouL4MYFtFUmiR/UnBKgVUUWtK7gsl9gVAqrGmGvNa4tbAtiv9H+09sWd8yyBaM62qkXwle6YcZVR4J3KXMKC8/f4Pu1EcuDz26bLggNhRNOCyYzNmv4IaCQamtiqtPwDrrn/+VwcVz1iSfQwkDETsA9akR2EARAcOnU/cPmBOzJKQr8ucEN5lD3Jc/u7WQxnxb5rmZGCVBqqajaoGGhEY7MXqHkcoMbkSm1vaVRvZrA4OtN7/wO4SWRuALMOYrCuinceMncwDFgCTnlnE0RllS96mgdq67J1X/NTbdj/+sXt2f/+Pf9MkzhQAydRBszENMahqm0usGQQLuuf+YGB4+1lPDc22sphp3fMs2plcOsYXvH8asLr6zwfbqaFDGjGNUqCw0gHMUT6RiuexrRKjm+vWEAGrw/LW2gl0z45tWN6CsZh+taRaKkjZd8+u5fmD1ZxPGWjYIG9lGJtilqb10APaADb2UD/wi9qDk+t2c/8DI/sCG5uMc+1jGrN2/MY+Cn6sNiI436l2/rzBcHSwMkbFFLake7uj17Md6Wrj7Pp5DqZNTqdeZTx1s8YEOR9vlVxR/TOgCo8noR6BO8VaYJlGoAUJa64TqgJGN0fXwIqryJET+Dyj59dl70F1RB688wcnTs5/nBdgUzTuWZVjlwPYpw680p+4vRvOByI6qBVUYGgjaJ5w5+/kYMWqX0l3DsdtzUudWVgNFJxCDlaw0gSKbGZzwWr/3logAdXPbVNLHfcyWKteCzCp+moEWt7OoGXmRTPVnTxlU2BkiGRqhnV2j0Cequ5pWXyUxnPMjBZxNZpDKBMgIjBiMGM25Zo/yHB/DjYq7fCjMSs+QsOV4O3WQZj7EBVp4KgZ0yNGRCtLuqwW8MqqfJRuDUBwL5uMQLw6/eMEa9R1QfHpVxFS2F5Q3ykvk1KUBuRhf8GgSnHdoxDQ1TN/7G5jAAK1jcO3ONqDGuV1Po3ARnNsTAP2hXOFZ2BQPwlY6Vk/Xh0UrJjKjpWNDN4RQ6gZIdNDPdgi9uqTYStBveYau/nkvQ7ESROXqqsJeV0KeFlTWo4IcdPVOx3gpWolWJU9V8AKgYrY0EHf8cIXHL1h1jSZN5yZLND2iF0bRqJwZuofmrA5s+IonxGDUVf/iaFPg4FFTIk7u7abR3lwnZh6V9mWp5Jq3Txbmhg+50xyLxJktb5WtwygJoDpIAnsXtLeuSA8pwpz31HmBdakLMrzFYuM9Bzoj+tltq3RoC7saUi3ByL3kHGhgZP54xjl3TG+t1+BtQ1gt9GtNHP7Rt/bFKxgTFfhR0bBEUHl0Cb/nurIiPkkjIo1wYYbAsHgC/ObaUif7O5hcGe2tLkiW4LWvpxLACoWSc3bvnSm0etjj10NrEp3pJ+4vTu4cSkybTiq31A2qXDYFY9sUl5dx/l4hqof13czsHryKz8zdWjbl+oxgHH3IYjBM/H5cI4SjA3yOjP6bUVVcTIAdLdSWcdMQ3op2FoNYEuAOftd78V9W+ewxVXrMTOz2q6il210tMbSspH9jb/+o8Prd+/P4GHMc6w13Lo0Ls7e7UutttCaLPbj9dRHaWrVtOebgBUYFVegxoh01wJno+zIAT4au2fM0wOIGpMQsAoZU0aKWj6/46iCLZP56ukPjA560dELt4oZdrkBw2ppW0a0p0wzB7xQX4CYAdYP/O+/+7VmMLMS+estSwxe0bVxB76HgUqucmSCYDuJ5+RPFfX56mDF7gkpOwrVTAELj3CK3EJcRGnCQPdeywM6PenAjK0skmqQf0Y1gm/UwS4p+9tYuQEzbJV5CHQKuAlgWwOomEHeesYbTolVY9lLQAsXPbAjph0kxiFlK2QI3VJa8Fql0Kg1XAKrWp9Z7T3T57KUSB00IEIMn+/4A8+cREAsnTRv7ePN0jfYp2yy4tgDDrKiXgdXftPOULPLhzJPx6u9KA/HmXQpWNnGAW/T88L09K/83O7r/sTDm3VRLeM5gGVRFDSaJx9rsTL5sPLEzlSrUOa558Vu75F99RIYFZq6GrNi1S+aOLrrV5K3GuEt7Uc++9RwYtw+GhbDfvMOZw6J1aiZ6eglaWSVjCZxxKJQtHokl1TpZkblreQZwApsJnOBKnsRp6cSzS1zSdfau94OopcnwArj1TQEA6dayGFLj4XJvYB3bgOk7y4JqFZjVpNLSEmQpQnUyr6Q3gKRWQgNdLoVB2c4BjEGzKHzI7XOsyEEx2DGpkU0m3cEiXnwpFK3AwZlqLslO12xLXMHseeGUQIu3mKfu2HwyLvu1DaQNWQ2Ornu21aavMcCrwxYwUWhFD3B+p6vw1ITByItrApYezleGlCtAlbj3X46UVr0Zs8YHEw8z2blxeIBcPEtHgdZqruBsgbPTyqaYJw52XcmQPXEe8ZUHlibqoswtP/soVtDWg4Romqy1zZ3gWiQ71Cos70+CbO70FcMAKT32aFsk5mCVBaHmYGtoTZ66l8tbtYYP91R09EOBSpuXwRa4UF+jEkdzwWh3TiwCoGqNrK87fwkuJXsWmBZZrwEO8EOWorJ1XYV0a7a5BcblavqEDvBwEXAfwOsn3ztlyebCbw7Gu6K6m3V0g+jDJzDsTyJJuxNNwsc9bGF0UxAaN/nDLC2CeEB1Vx2sQS8SmcNvVjrJjd2+nSPyWTHUG0OZceqs4heIlAtYlazgSrqhCRY6euIdIgJ5jEvPoWO92uuFOFYKQGVoxKFDGHfXhjTD3aE9hXwQJZX5QN3hhqQ1iZB8NwF+4aNg9//4NuHuxsRUne0L+7ri51SdXotet0zE47U1v3C6IFdFmQZtLz48BAZdv5G4KczfQcLxcx+0NdKO9gey76UnT9PPLMM7KsDFWjsjA7kDlEDvmekLxk3ZwMYrZYHap9u+fMu2v0PTHb+dAIr27Hvkyu/S/IKQGuy41RYIDxVZAJYDbaqkVlSFMvJZghuGX7kXbvbf+i+oVVDsLn9oVq3X9Q+6MlC7JE1v6UW8GI/quEYjVyd5boiOHZMgPhY/cj0gASBf2Bt6pz7UZpa/Wcxq4kxPeF7k6nEkGauUVtUH1ffb2ALCnjp+hPL4MkZvk8q0Mj2gmMzHlvEO+7Bb3sY7ICm1OEKq7PH2K2qTXBzah3S2wZHjfVRnb1F6CBAozeBvV3OfboaWGlf1drG6a2dqJ+x/THccDAADjZdooFCzHBcvNSzXQ43q4/e8N6ZH6XJzLMmZrUJowpWjIPKy0AvTboMNS5NBtdIXZFmZGspvQaViFW5Gphk2j0p0wOIGmjsF4DiMaeKChjtenqheVmtRd0HmZhntQWNk53cSDUOwQyLYbS4ltiMPPMce90ghxU3EAXCQf2N+mVfbz2Oc/X4Z+7g0IPPG1RsXvQPtIwzjaSQAakRpK+urq4yL9y6dWd3au4uTbWMmTariAnVAMfV5/cB871IjFUfJ47CyI1ltU+EoFciseFcVaASuwJzqbV5LN6ZFAwAnjrNdr/JMafdboeJN6g0f+xbh2I4njfqNzwIDt0yG2BHyrTa620uZJm/RjsQFXOQq8d6vc0Hb/F16nEAVnDl2MevYhlHmwsALwMtAyz+GHjhvUs1qCtmpJgVgMoDnE3AK3A85JVjRFu6kWMyKeRKIn02rEj7g9MZYIjA6sCOoz5IkRGYhMm+OOqG4Tm/2qtN5wS140o7SftnDFjqzAhZjqAeXJA5mTyQNd1bp068AAUOW8JA7PWhluH108ROF6yaunOXWgSzYLUHabdoZ5EewXH/gndmEExKVVtlX894/burPOFSEqTAapjYe2ZVa9gm4MWFJhhYTZUas3NUS3YmdXV/xP3Zg6QHenDutGcwFLsTVx1VqT6sGnmbApyf5wALGRSPIxXaz+0CWKHMkjtIiaFN7GgOKBaBZl941aaorNGxYblMpWC4njDJaPwVbGURSHkgegDUxNgViCZjas+k+LfrBFTDeMyqgSrwSwCv6sCuIG+kKupqr8ABxmHHg/hjR4XgAxbdB8fxiPAuvPZx5Xdxl0wmdTq8jsNEUf7B+ba9LcnqxffdjVdGSWhqXTwmk9TxtaotiLpA4HtmN/dApdONiJI9r2BTYkfWqvGcAG9yF4G3weCokB5oaVSG66L6TQB5LljNBS99bzUmFnifq60nM6AP2ibBAL1Y1/yOHpvBJPaYmtp/Ri9lGtAllcSb2NxGZljqDQ/Q1cnO71jdf+H23UMxv/mFW7vvf+WTw/8P/M7nhx3cf/N/bu1eeM9XdnbA3OxUHBnjYKdyP/HGm1Yq2/Bz+mqoXLATOpGVgkDAmIp2wH0e4dlPskNF7MoFWo8dSgYRywJodbDKLHlY2ZNqYylLANns4xcy4ecOfk+10euTPECpgRqDxSgHnmiVSVcDsdqmgFs+dYgC/Tt/47d3L7/36g44fel3BrAygELkAANpXJDpMkgAifiaKSB47UKaEDwChhSya1JDWY1WlfpARhWA4vGsC/HBOHbAWq/LUvvVxMVnH2VU59B1U//QvtlqYANuDUmzamMm3xQbS9i2agyqVJesislAF3nbTyaLcxSGmQ7sV1y3DCiF/liy0TAODInaCtXTu+DD3rF62dlGU3Xtfw5zg+ce6ynZF9O2x8qgmfSV7Oox+Lm3wzz2oXG3MzM2NQ2P1RCsENp4v5Oa8tpnBrkv1NjWdQWqAUPWUgNbO3It8CoeZynZH1BhMWrj56xdqJWtNU1OYQtVdhF0gr3nxVUaBgCBknvTiRNqmlml1x4FAFM/jXU9+uSzh4gZrCpmjeqtcp4A414uo8+W9Lm6ZQC07r3rLa3DupjeOxc5ASZv55jcKDynVt4suI6qHwv0ZGB1wGoWqo0eaLlHXyrOekO9vDSlXSBtTMG36iB/BzTH7MjGY7/NmrCJ6eYZwEvMrQVwebPBjPH2+a4HvjgClqeCJaq8LImzQHmRWVs82DMVqoIVMsH4qR29oUKvO1CdlFnVOncJ82Jbl1dO7XCxS8MFwCbxlnRFTBpvD1bVyG9nhkobyTerWoGNWT7qrFrtuz0b81RGhPM12xbbuCxP1+9qSXjpWkVpB9RAFXY2q0cmBHUi+0mS8RxgsBl0wAYzCytY44vf0Vqdi0t/NsyqJrkl4BXlnbF9eUHgxt8oPlX1Tr4a4Dhb1AcMz9khrDGTyCDt/c5qJmSmGwn43dt08NifqoT//rEvD7uKf/NVz5qAYKSm1saF+5xUp8nzgDEDmM3VxNTUF9z9V2YVW3vJu+9R3xnl5Zkwgg2XS46kUJMZP78YsDro1IVqI/Jzd2z2IFRaXcdQJpaRBzQtvVBKWwA5D1zUbaFmfNfnugPIoMUsC/G14PvFTYjsUJbmpz9xe3SBwM4h8lWfMA/8msSanPC8gWEscquLKg7ASup3sIBECxirsdfgzF+2Ty8WrCaIuxJwZYVm6Q7Aqmanask8ubbDVwAACKFJREFUk7bG1DJ5AGgTedlEgv8YvPL1/F8NsOw58jFju33YURagxQZvD7CyqixfjFC6DcicW+1jvmL22UIFHMaM+V1F44RUQ74JZ6hQ5AN2g4BqGDun2g3MzqU56bZQGbkekwBxcyq4xTsJwAmL5RXeWe1x3Gbidb/PTIFj4pEdFIh34JmPXcIo9rzu1oVglXEGpXofHFNy3BRgZ4LbwRKjO27vGd1IcJTG6btaG2+CQV2Hz7UEq4NGrsi8srexbIFHB3l6q7QHWg2T+EB24r0/8VnyYlSpvajgpY5JC/WPHUnZryuKRlGc0LyjJg6gqj5b+d7NSQqSrO63ghbGTajqFa5Vm7yDHeIbYFC/kWC1Jnilt5+PglZBIQtYlmc4T9nBIvtQAFaRXQu2MGsZ7GGeLUvVw2gjodQNaqty20lAN5ZJkU0zoHWwkePcDjSJ+iC2Kj7cfCm3J28x/G8Es6oJbo7aOA7AY9uqao3R5zVfncgeQlElBnsBuSNE4WmaAEPdNEg946gVOMrj7RbWgNW9pWdvA8q0Z6hSyUhPsbyibjE18qnXffvw+G4LpcMfcXnxNjcmcbQsFtgNZFQQWQcrZ5RlwSvj+tCKLaukV78vnXSsFgZe/hMVKzoJ4PmTRWm9hgW7XXAl4Ff0xiJ+VjTIt6jAFWCaXEe2r0CJWWF8aETYA/eEgL2pYf2muChEc6CDVQIdMuB1EPi/lO+WbCypAjaxoJqMak6wbMeKbGoFhmfFR7HFWB1kkCtFmKg1Z3zusD8G8WjXcGKf2ofT4XoyUz2IQMpuCRSw8CYzqs6s0iP2MGEGvIqsS8GKjcFgQXPrlwSrudm770W7iYVdxnD1dLzf2RCvgf8AApF/WOaM5wScaq4FXHEnDj2ACruiHOOrxqiQ9WA7E9l1sLqmrgurTsREZnPAK2OYTRRdj4mvQCiTLSyjFfRq7CrTGDlYzXHBDKQOzu/tr+pSe5ZX1IGbAo7xlNRW3dlExp4dcG80xwaBHdbWOyEnhnJcMxbcaMQA2oHqjjS6GpicRC3JMuDVkl82bcqGxvYsL2N9HkzMg1c921CLvUgy9OLSA7DU30tZldqwJoxl/yWtBqt9jwHLURMtTI59Xv/8Fx5eP6bAGMmMZH7T7VQ8LDpYZZFgQbpTgZdV2QUwBiDPyJ1pa415BUwrAxJeGv0tAigvfA2awzG9dCcxHdFCVVuPbe1v8Bnqgss0SmBueegNO8YkbpiHem3YdbCqSWiD56cCrxTzam2vt/OIPILdvoHS081Ck9UzceOQx5wOHDjF3cLK0B1FPt+YBiuurALQHqQsyZifqpJJm1gHqsOB2MGqdXKunP5UwKXNmA1kEVh5Ko+ngjoMLWJWyow843kEghxXy84jsle8ySKMpFpxxUBdzT5lx4ZwvnCUb6QKO8xzrLvtIN5gf6poinWwWhl8lmZ3avDSMLzcHu9ZVc2sCUQmM6t3XvibCMgmbMZhP2zcZkN9FKbZOwc5ZCvgxfU5OBZTUZUZnIa89+k7q/IHTQer2mQ68fNTg1et+WlGVpq4xDL0stGw/ArjwXvqqa7nES2dGu7BtOwv39nogRVU2lCNjGxcBE7cxg5U8YjrYFWbjWf2/JzBaxXg8q6BX6kP4DTqHYxGEerioEWH5yQzjq/ILHAn6UBV7ugOVitNhFNlc67gtRZwqXMkq0uRzGvG+1JfMVjxoWqcUcS7rTYub/eyM6q2WdPBqk1eZ5/6nMArDVgZqSYPXEMts7+RzQvPPPsYq48c7QG/s3PqgYqIRA7LOvBelzZ3VlUfBB2s6jK66BSnBi83bPQj7zq4i68J2GCIDtwfMh2mflYMbhPGs7/GDBddIEAgX3zhsqyMP9a+oA5UmR7rHuw5KV2jVKcGr4wo9Xai6m1ElmlgcAejKamGNR8rNtJbUWBXOPeHNk3yKfiYdfUvMwoO03RmNU9u1+atSwAvCDvFvmqe9dpzjh+UukfAR8te5Wim3iCYOINyAj5Cg+irtx66NuPoGA3pYHUMKV9QGZcAXq2gVTo7WGNV1nXMyhi4eFfRUwWVzU18svpRmuZZ0cGqWWQ364VLAC/rkZSquMAtQtVJHQUWIcI82O0AM4ALUSMsAgNAbzT6d7BqnkgdrJpFdnNfuEjgKqiFkR3L62FlZ5ZG3Rxgz1K2pp7t/SjNvDnUwWqe3PpbxlJWvDVoK4FO7upLnk0s1aWkUuK9UsC/vvM3v6c7WM2XXX9TJHAJ4DWqjK2GeKe3zX6lB6I5Gfy0zB9rUAO76rdoznSwWiS+/nKRhVwC83riPXeaoEH2GsDMO8bDchmYVgeqxZOlg9ViEfYMshI4Z+Y13LIdBSJMRE/Quw05mkMHq+wIKafrYLWOHHsuMyRwbuA1ABazrFKbBMA8A/z4evenmjE6Dl/pYLWKGHsma0jgnMCr1ZcL7YdKaN8He1YHqjWGxh2b39XV1dVqufWMugRWlMA5gFcKtNBmObPYgWrFwdDBal1h9ty2lcCpwCsFWBJbvftSrT8WOrNaX6Y9xyNJ4BTgNQJX5UqzDlbrD4IOVuvLtOd4IgkcC7wmjqZOWztQbTMAOlhtI9ee6xlIYCl4pdU/a+ve7aED1XYd38FqO9n2nM9IAq3AlQIqax/ZqjpQbdvhHay2lW/P/UwlkAWvCWgV7FQdqLbv6A5W28u4l3ABEpgNXl39O1rvdrA6mqh7QZckgRbw6qzqOD3bweo4cu6lXLgEIvDqPtXH69gOVseTdS/pGknAwKsD1XE7tIPVceXdS+sS6BKYKYEOVjMF11/rEugSOK4EOlgdV969tC6BLoGZEuhgNVNw/bUugS6B40qgg9Vx5d1L6xLoEpgpgQ5WMwXXX+sS6BI4rgQ6WB1X3r20LoEugZkS6GA1U3D9tS6BLoHjSqCD1XHl3UvrEugSmCmBDlYzBddf6xLoEjiuBP4/ymywDLWK+dQAAAAASUVORK5CYII=;" parent="1" vertex="1">
          <mxGeometry x="193.12" y="300" width="94.7" height="70" as="geometry" />
        </mxCell>
        <mxCell id="ZKtt7pXRlVkyNbNoVnik-259" style="edgeStyle=orthogonalEdgeStyle;rounded=0;orthogonalLoop=1;jettySize=auto;html=1;fontSize=12;fontColor=#006600;" parent="1" source="ZKtt7pXRlVkyNbNoVnik-2" edge="1">
          <mxGeometry relative="1" as="geometry">
            <mxPoint x="507.8800000000001" y="410" as="targetPoint" />
          </mxGeometry>
        </mxCell>
        <mxCell id="ZKtt7pXRlVkyNbNoVnik-2" value="" style="shape=image;verticalLabelPosition=bottom;labelBackgroundColor=#ffffff;verticalAlign=top;aspect=fixed;imageAspect=0;image=data:image/png,iVBORw0KGgoAAAANSUhEUgAAASUAAADWCAYAAACXFpR0AAAgAElEQVR4Xu2dX6y1x3XW99fiFMWxm8QG0hjVKcImNBBUVyBF1CWJoBdU5YIWRMUfKUH9IxVxiUS44qaVCldAJRoECCFUFBxQiYRQBLGhLUEgXJqSEhxEYqhNgDhx7ThS7KYfWvv4OefZz1lr1pr3z97vPmf2zfedveedd2bNzG+etWbeee/cvXv37m58hgWGBYYFNmKBOwNKG2mJUYxhgWGBvQUGlEZHGBYYFtiUBQaUNtUcozDDAsMCA0qjDwwLDAtsygIDSptqjlGYYYFhgQGl0QeGBYYFNmWBAaVNNccozLDAsMCA0ugDwwLDApuywIDSpppjFGZYYFhgQGn0gWGBYYFNWWBAaVPNMQozLDAsMKC0gT7w0gsvHJTi/gce2ECpRhGGBU5jgQGl09j98q4KJK84A1InbqRx+6NaYEDpqOY+vFkGpP/+f64U1O/8bYfqaYDqhA03br2qBQaUVjVvnHkGpN5iDUj1Wmyk36oFBpRO0DJLAymqwgDVCRp33HK2BQaUZpuwL4Onf+WZnbpifTlMTz0gNd1248rjWWBA6Xi23plCsjgRoISY0akgZVUfoDpiBxi3KllgQKlkpvmJIpeNg9l2l1MCakBqfjuPHOZbYEBpvg3THDwgKYw0k1PDicsz1FTaxCPBghYYUFrQmF5WVYUUFWNLcEIZB6RW7jS3PPsBpZU6gMKIY0l6y3NSTZG5BqhW6ki3MNsBpRUa/c6dO7tf++IXL3PWgLYX4L4JYBou3wqd6RZmOaC0cKMDSN/84IMHYLLbGHie+eKv7e/46IPffHlnfPdf/t8ru9/zW+7d/2Zu2xZW55Y0z1BTS1rz5uY1oLRg2/KSvy79G3gYOnbb73zX77p2d09hWSJAaosxpqkmHJCaarmbfd2A0kLta0D6F5/+HwcKyLI2GJny+cATz+6+71337P747377JWA8KHFxGFBQWlUotWJYC1V5lWwGqFYx61llOqC0QHNlj43ADQOgoHzMxat+DFCtPU3q6nnuY/Vemm7JvHrLMCDVa7HzTz+gNLMNq0DCbaB0eoDkqScooS1svuS6qLqbaV738gGqNay6nTwHlGa0BYAUraZxsDqKIc24/cGlrKS8IPnSaufYIGrZaUBqqV60jXwGlCa2g7cPidWQxnT4bwxoVRVT1ZNXBUCKY1AZSFrnN+EeUaxqazGsAaqJHXsDlw0oTWgEBpK3v6gajI5uvRScelwpBOm57NHeKV4JZDcyAmAEzQmmn3zJgNRk0x39wgGlTpPrsr93+dTley9Y3Vm8NHkPqODysbLzYlnqps6Nm6ESPWVNK+4kGKCaYrX1rxlQ6rAxx5AUPL0bHT13Z6rq6KjCtTgUf9GKO3kuZ9Vlm6P81gYT139AampPWva6AaWiPXtjSMVsD5IdG0pRGT0QaEzMi1lFoM32Y/XY6piQsnINUPW0zjJpB5QKdmwBSS+fGk+KgGT5z1EaheodJPlPn/5v18508lSgKqdWkHzp8h8bTENN9faieekHlBL7zTkLqereoAiRC7j0oPZiNpWVt4qrp4/X2DUG6qXqcEogRV1lqKl5ENKrB5Qa9pwDpKWayQb5ku6PlSt6fKUSFwNcTFHZx8pWAcUSUMJ9emG/VFtU8xmQqlrKTzegFNgPB/x7Mz8uqbpqmkf1OtxniQHN1WxBpFrWDGD8+9TyV2A3r/sf7+oBqrqtB5QcW/3jf/sf99/ieBFvyTsblPUm8FOqOzV1YHu5a9yoVRdWRtGKowfpuQqvdR7VHNtuRWUNSMWtOKAktjGFhDhIz8bIyv6dKQoL1yztwrEbpwPVAwq7TtV6VEHq7WxfQyW14mZbgNUA1UXPGlAiKOmzbDz4FFDezmdVVMw7TV914aoDe6p68Jb2LS+9b+uUggjemsdzT39y94VveutBUaONl5xoDjBYBUYTx1TbrX3dbYXUgNLrPaulkLzHKrRDegNT01RBhOvWBpLdBwHrnkdE2P3TQW954ogWqDt1xXAvDxKRK+jZrhXvQxm83fUV13sOCNeE1W0A1YDSbrdjIFmH8lRR1pEzKFWBhMFwDCCxC+epI29wRbEerT9DAflEAz0Kriu01IYeEHEv7/7ctl5e0XN/1bZbE0ZR3jcRUrceSgBSq0NVXa8WmKKO7Q2sNeJHUf0AmR4IsssXwboFca/OUwZ+lI/Gjqr385TXlHKdAk58z3MH1a2GkgGJT4PMOlP2oK03EFvBVVVlS24yzOoy53c9u4mVkP0/A7DnorXK04rntWJP2SQRtU3WZj2Ka46dl7r23CB1a6Fky/78RhHtABGsWjEKHWxT4hI9imWpTsv59Kx6RTGhyA1SYEWKhtPhHna0in3wphcFIa5RVaRHEFu66sPFLXdTy6htoXEzr60q8FujjS3PLYPqVkIJ+5D+6Lt+x7X4ETpBpqA0+O11yt5O95X/+dndQ4+9Z61+mObLrlwEJy/O48GFB6UCIy2I8/YWBUSmSvlVVlV3uFXnCDqq1DLwZun1PlMmtop9Nc2WIHXroITzkNB5eAa277z3svU28pw4xDkpJVYrU+3GWwKizZmZPaP4lWfL6mmfVcXYgobnPlbr2IrJ9fbHqelPBapbBSUNavOAaL0ksuXmeQ2eDaJWJzk2lKqDL3M//ul/fX6fBC/TBOB7bKd7ljzV0doaENku2pLArpz9n9Pp2VKeUstijJanFzzXekX94VgqqQqtY0Hq1kCJFZLnTvTM9Jq24upVG946YtXdqObJ6byHcdkelYHGCgnwwYs27W+AKLMLrjU3GgNY22YK4PUsch7cLehnLivbMQqiR7EkpK/YhKHVGwKY0ifmXLMGqG4FlKKd2miMVkcBgHiwcSN6s7v+Xm1064B2vx/8Q3+geklXOt4oqYOKlY4BBi/N9GABe+nrxu06+9i1rU9rAmAIeSdhRm4Nf5+pHJQtc++qqtVbjfTKE6kmrz9FqhF9BP1xCrS7Os3riSNXVPNaAlI3Hkr8tH+1MbRDZNDyXBTdvJfFHuyeP/nUL+/dnzWgZAPnsT/3yd3//dY37r7nO76+N8WHvuvh3Xv/5q/uPvyD9+1fKQ6g2Nt8H3nbxe8oF37j14+rPauuWgSluQPMs3ErNlOFTrXfaDqzuT7QzMDkgT5FHUdH0Ewtb/W6KqCQXy+objSU+JB/nfFhMG/2ytSPNh4Gma7m2ff8XbZ/B/ksBSUoI1NBn3nhtd1//tmv7T7y1x693Jv14z//7O7jv/iN16Dk1e+Jz7x4CTLLD7EjKCxTRwrvzCX2VuiqA0PTtVYFcZ+1IeRByVOaUwCU2WVObDDLO/u9BX7P/cwgdSOhpK9AUsgoHDzDRTGDrIGi31uxGo03RJ02OnLE7mn58/4bU132MRi984F7LlWQ/QfwYJfN4GnXwG3jVUl2Ye16xI9MGakrp2opi6H0gqkKFj6EbmqbLXEdq6Ul8rM8TgmgperQAtONg9Lzv/jvd2/61keu2S4KGPZ8r2mjv22g6Wa/6mxiBfeg5D04C4gASvav3feHf+blvYv2A+98894OEShaq10cu0AeGWCyDhsFgaEmPCVZhVB275v+u3e0DPcL1H8LK3q3SikZkOwDKKmk10bigYcVIO68WWAy2nPCeXgDOVrW9oD0M//mPxyABaqF3Smu1+M/9fQ+/d//gYev7blqQYUBFcXUWsFXVTwoUwvGCgpvwAwo9eE0ijPxWOhZYe27+2Fqr+0zIFkON0YpRQoJs7Aat+XSqTFbrpwCBgrJUygMjwiYPAgVSHa9gQVAMrcMsR0rB4D0l997qJDY/dIYVxS0BLBb7lhL+fTOzN6K2RqxlzmD7Fyv3ZK7d2ugFB3wHwWsszhGppC4c+o9LHhsH3OdIgBEQFRVAJcN92MAGoAMPnYPA6EqJ1ZFlYBzT50BR30OzVM+nguh6SqbHjG56CQwlFSOyrWhVJ20K0C6EUrJAxLP0tpkPUv1fG0Ue9I0vDL1tq996cCVjNQay2keZAwlDEaLI1nw+rNf2O1+7sceu9YjvQ5SddsYftVAP5dd3a9K/MI74TJy66a4d2sEmnMMbDtFa+f6UiVXb6MKpLOHUgtIntsWDU6Np2jD2IOyXvA8gpZ9DyDp4PZW/lQ58YmNPBA/+NGn9ytp/CiHKpEqTKLOV4kbsWrhzuepLS9+wem83detgVENhmfqYCgs38qZ3arQ4n742Lc/Wr1sn+5sY0oRkFqDMtqdzXttKu5G5Kaw0sD/9YFfD0pei1k6XuKPYjyeupm7StYCVta7PAh7Ckdjatkubw3UMhgVbFkZB5DaFloCTOgHvUA6WyhVXTYvdmOQ4OCtPiphRuFYSbS0z/AyJYUD8SvQ4TQYbFouD0roSha3spgVysl5IMYUvR5Ku6O6Xx7kKgHtDATe77q7WRXiFDhGCwis6AaU+lprKqR6XDYu0dkppcxly1QMfteZWdWFDURdSWPIQV39pff+3p3n3lWCf5zG24QIGPCjCnjMw+ph94Zi6Otm11NHwXd1zxjGUcyoFUvqBQIfvZvVEZDTuJy6571lyO5703/veVCZbXEroNQDJA20eYNXV+F0wEVukO6ERt6tZ7pasSWFE9QayoPBxpC037xD6rKVtiUGkBfXgQ1a8bleGETH7kZ1aOXPB9gtYYPbnEdFOU0Fktn1bJRS5rJFA6Wn83jS367XgY4VNoMCVBLHfMy9stWx73vXPdfUjOYVbVvgcntp8Fwd0uH+DLSpgMrK5IEngm4viLjeDCWeMBiAXH/8XxVmTx8YaadZgEE1B0hnA6UMSFmHnWbmi6sqgVuk0Y2NeoSHPkPmPVUfASF6xizKE+DEMSSZDRQ0kfsZraZxGyx5rK9ti9BtHKrKIsU7B4iZvc7pd0/ZtPaGzbHb3bt3Z5tm80qpx2VjiCyhnHgWRn6sjDAQGUp8BIgCpqJc+BpOr1CykwT0eSfEm2zLACumqJdEAMyUUqTiODg/u2dSBhxXgivbcs/XKseSdVozr4p71bq/egytnfXsFi8BpM0rpQxIlbiRqqiezqABbPvbPq09S6owWMnw0/UtIKCMWJFDHuYuRrMYThCwa3rUUdY59fclY0Y9beGlZVjB7rf90RSdqDxlG9ndG09IG227mLP0H5Vjs0qpCiSFTgSqpZQTwKQGNVAxtDjGZGl1jxQ6i+easELDddUzlux5OcCPIZgBQF2gCjQ5zzmSPytb63fdnTwnr5tyLWDNSrva/3WbRqtf2G+YOKfsRzorKLU2RlaNaxVurXixQVozhBqO1ZMHKFZR3tK4unr8QC3DCP9HQLs66BGDMSDZ4yg4vsTyq54M2RqcbH/Ur1q2NQb9WFW7blU+3I+PNY7sz5t0K23E48r6w9zAtt5zc0opU0gVo01N09pfMzVP7zpvf1Kk+HrdEe6QfG8NuitcKvXzAsq95avcpydN5TC32wSu1kPcnl1ZGelE3hIAGCtLA8nKsCkoHQtISnpVTT1qDA3pyVxuZC9Pb4VrqeVsc+NwcoCeWKAA9FQjf7fV1a2K68YxllMDtAe2vWm5nr39l/tw5DV4E/YaQNoUlLLjR6YYutWwPS5bTwfhxmu5j6qWcI9q7Cgr01954sm9+2afv/f9j7lvAs5mwugeW1nd0lU5r7w9y+GZTbf4O9evNdlmE0+rrb2xshaQNgMlfWutLkkuCaRqw2kj9bh2eo8MgNip3Vpd6x0QgBKekWtdH6k8Vnq8u30rUOpx3bhPbVUx6SM1lWNd1OVCO0erpFiAsXTR85HZeFsTSJuAEr+TDUHdFgCqv7VkKDdc72DP0mcAioLfSw0UXnlBsNtelYSPrgLa97wSiM7qxZwYTEuVN7Nn9DuAZEfEPPTYe8JsMiVxyiC9FjraX8QPaytsWhMg98UoHbd/dfvAjYaSvnWEGymitaeiqgbXWSWbEVCeDDRTBxaXZ8lBjgFrEPmJp17cn9fNUIreU8f14BMIuOMizZLlnWI/frNLFSytx1aqeUwpa/WayNW0+KD3nKPli9dnYeLJtnLo+KmMOU6zNpBOqpQAJMwCSmmP8p7Bo0bwOoJCqMcla3WsTL1hUDOE1GVaepADTPYcHl4qyZBle7OkRxoMAu70XOaly1sduJauEuDm/Cy9d3Y694dTQ0lfn4Xy66uu+JXolgYbZfVMsJY9I0WUTb7HANLJoOS9l42NWFE+avTIh47UTtYAPYNEg9tZAFl/X2NA8GqMddjWfhWFEjo+gGSnXXrP8UFN6T6XNeqjkMHf2b2wb8vSR88aVvPq6RO9aT0o6QGBlqfnfuM5R9wT7+Pz6px5IJg4Nd2xgHQSKHkum2coVR9V5YSGUSXgydQllFIWu4rqxuXMBlZvB9f03lnfXp4K18qzelHZ1lRS0b4jKKJoULZU9SmD9xrg5knZ7MsKFS65vVYdJ1Hg7cS2BQRunLadLlRE48mD0jGBdHQozdmHpA3VUko9g7gaV8oGMRoTnchTe9y58P+1gWTl8Z60r5w7znVC/Vug0kG/1kCHqvD6RHSaQktJWz4ZRDXes1S7cZwLZdTnJaFS8aYcawtbVeVnHPGbQglqiaHEfVm/P6VCQrmOtnny6V955nKVh+mPglRVSwSnLMCnA4yNv5Qrl8WWPAAu1blbII52+VZsHg18dhVY9cHOvY/H9EwkWh+7tnUsTDbxtI7xUOUAmy3RbloPxIXsnvq6dSgkO6OLXWlcg0eK2PW2fHBiBOAU2TmK1x5bJR1NKVUUkjdAVGJqcJgN3AreRddlnbVnoGhaTx5ree3vJTp3BiStfxbzUshw/l5QPFrNW2ojaFY/QInLkcUYOU9tAw96nD5TVVm/YeVqaRG7s/9D6fCruux7HByoLxr16o702KOmD+aiDXWF1a4zu1ksyxY6TgGko0CJ9yFVIdBSLoBXBCx0CM8v92b9apmyjtaCEmZbNLq6dkuD6bmnP7k/XqWiAFvKk23ZmhBUpSy5CbRl9/t+9F/vf/6Lf/gb9v96Dzdn7cK254eZNbDPbZedLxTFQ81OFvexhQPstmc3jF0pPUvL7s8rb95EwCtwGoey67Gi6gXL2U72+5/67t/f2+UXS7+q+zblaX+vQTUWk8WX1DoKHoVCrzXnDHbcCzP53FmXyz7l+SeFPAafB6RogOv3S9bJaxvbrf6xT7+2+9z//sbd93zH1/eD3D4ASTTReO0GKKl6ifpMKxaoeXhlN3D8jX/1G7tv+5av7/ePeSrGrlNAVU540GB2NEFrH9T7LXkMSe/YsvSrQCk7vrZHnbQA4gWTIzVi36+tlBioFXAuGQg2dWSveYrclize5cGIO2/WuVDfNYGkJyAgXqLnRnmqLupzBiXebMqPXnCdGd5Ru3E+rGw4H93smNnV+z0KWmcuq+c94FBAs+UpXTau5+JQYnct69RRHMnrQDrLVd0zHmwZlFoDt9J5FEqtWJalXWoAw12rqBuvHr3l1qAo/71Unbic3//TH7/802Iuui/HBpMCxKunp36iAd66PnK3bed1FNey/LBChgekvZVML+Csrhy2PKh6Uih5ylDHAOd9aoUEmy8KJVth86RhpozUhYiMq5BrxUM8hVWJn7CiiuDI33sDOlNJSw7cJc5jVpWkA9Jz8SJIL1W3d//VKxDZvWzVCbM5P8DslTUCirYVgOSBADaJlLr3sGw2UXrL9gwY3s7Aq2hWb17+B0i8R09Ql9bEwfbhdDcOSuyy6dteIyN4DR+lbbklrfyze2QDMlNILaB61y41aC3vuUDK6lYd8JZuqS0AiBfh3rbaFKkPU0x4IScmEw262/eeouDJB9fADWTlxWpDlQfvZI9ez86gws56tqungvC7/QYYwb6tCY9X7CLQRsA+1UqbV55FlBIfPcJqpgUnDwatmaa1+tM7uHg2wbXRjOhJYL5fpoo47VwgGYQQA8nUZ69NtE6tYLG2BQbWnC0AfP6TBa6xksb9CRMA4iD2m0Ipqzfa3luB4vf5MbQ81cH9ht+W3AozePnoyyF0hS3q9ww4VlhQT5EbyLvdkXYrCgk2nQ0lDWoziFr+eiQzWdlUZXXWEVu/Vwe358Jwh4nKOkdBtPbLVMvda5sozqeTiMJ4DnCtnh944tl9UXGiQeQ6Q5XZv99939cvq6dno1fq7blvuC8rnyicwGBjGDCw7FodE55681wyr09F7/OrjBWUBfe3v7ekkBaBEseQKp2AO3ZLYUSdgO/Rkqet61uznnamKJYSATUq05QBq0FTVgxVW09JV4USK4kp9eOyWSBbH/r13HVWIfaYzFeffWb3xocfnQwmVU288ua5Yz/51C/v7+XtYfLax4thIZ2u8mlab3LuOQmgFS9DvbemkGZDCS5bCw7cUJnROXiZuUQtlaXg61UUXgzBg2EkqxUEvQM2e6pdO+sU8FSuydrLfu+tm3dffiVUtBcHtsbzevoWGe89fFkfQll0nxBgq/3mgx99en8JH5in/dBzo3gMqPriSdDrt14dKuPN81AU8ltUSLOgZAqpurmromg8GVwZODxAK0oiiw9594wg1YISfuvdqW1xFX5WycrTOm7Di1/0Qjizs8ba8PcSQPI2G+oGQIZjBUY60L0JRevMNvNii/adrZyZmuMYFgDG+XmbIe10TNtDZh910xhsXHavTF6fq4RI1Ab2942CUuSyRW5RdcaqzABRZ5oCm2gwehCKOq1XnoqC4KM3bGDyg5g4hqK1g1c7p4LIs0cUgG3lFbXdEkAy23mbDXWQ9UJWXW5v0Gu78YkJbCcsKniBbJ4QvTJ6ShNQqk406kpn4YSoPyqUtgwkK2tXoLviskWxgJay4OXO1oayyE+OOoVKYv6bGyobxFFn8GagijrSwYhl3wqYo0GWDcZMVSmMWy7yElBiNxWK0NqXzwTKgKTHrywxOVke6I9QQqxuuM29lzhyGcxdw7NuvJrY6uM9fVQhVBEAW40jcV3KUGKXrTJ41LiZwXR/ic0m+qQ0w8srgwfEzD3xJLOWNatvy13TA8kshsIf7I2x76JzmBV+OoNi8LQUUwalrIOzDeZASc8P4rJjqb/yVle7LjsTKvs96htWDmxv0APysjeMcN/BZkl2+7ztDC0F5JXRm0DYjt5Ys/a7/4FPHWR35877d3fv3q0OkaOlK0GpopC8ErdmW6TXgcRnKfOsCchlcItmmsiikUryBngEQsu7evwF1B5cAsygrdhAZKusTnxd1S3NADwFSBq8j4LLGk/KRsFU6LTyhZ2snt6LBlQdcX9U2xmUcHyI/cZAgpuOyQhQicrW8gYq1yiQYhu8LzP76r+nUMqe9G9BojWIo5nZ29SGtBpct+95s5k+AzXFehoLiODEM1MFSFovfjAzOnIiAn1Wr0hJKdw8ULXg3wskfoBWDyGz+yA/HfzViWUpKHn2YhtnbiFcPlyjR4ToYf+8gZH7cDYhcJkyT4FtWAeS17OOD6kmlBRIWeN5VfJcocqg8kCkA0Z9c8xG0ZPe2X15tmp1EAaVnsfD91CX1H6Du2b/2vEb9hgFv5EiUk4ck2vFWirKL2qTTIVOhZIXQ2Egqd1hwwwGlfbM0rRswXZulQVQyo4X6YEOQyVrF55svDE6D0qHFjyGyxdCqXJaZNbg2rl0ptbrI+NX3ECvEbNAaVT+yCfnjqkw0g6n2xzglvIxG57y07gSB/fZnmwTHtRZZ24NDIaHupO9QDL1E202tLz4IDqNBapLFPWTKe2rg7bV51QtKaR4olAw8AQabXOI7q1tXoWSN76WBFI83pdVUy6UlgSSB6aoM6HDVBuhMvNEHScDagQmu46BlB38rlLdrq8sCWvMKYspqJKqutUeTL3yVaDEh8x56sjqHsVqKhNBBqueNlXA8CKK5qM28iDaap9qGKPa77N6oizHAZJXmnmQugalNYCUGdGbkbIG8tRTBVLRLKSdygOkpfECnV4Hj86tziS+2cILeqsyUpvNUUicl3fvCpD0CF5vv5HnKvF3njseqcAp6slzbdQt478zly3q1wotz8WP2jPr95WxZHmfDkjzIXUApbWB1BMj0M7hQYMlcqux0AG8Tt8j561zZceF6CDLIBSBNJqdM8XUglN0LwVIj+vG7yxD3dUtrdiA4dNyy6I+FLWjKuXob1X03GewgBJBNZsMFeq2c1+P7uVJMOrrFSBZmkce+aXLpPfd82D1siOly1XUJZTu3LmTDri5pc6gVJ2l0IF1RvJmVU/xREqEO6YHhVb9K/fxOq/GcXAPDtZ7gK4MztasCxt4wXgrA+7vqaTP/rN/sPutj3/v5fHCrD4jMGksTf9m2xoE9CA3T9Goyxqpx8gOrQlB+xLnXZkYeHLQ1dnshMrqZIsyseoyhfTya1/c/2RAwv/x99wxPP/6IpQMSN4nUwXzC+jn4MnsaCb1QMaNqjOjdi67PoonqIuogyC6t92jurUB5fFiMJk6bA3K1qBSq1s+0bk+9psFrHlmr7gYrSA+b4pFvQEi7zyhlkJpTUQ8ybT6akWtRrZuKXpv4lBoo+/htUYV27YACbeNYYT0p1dNOZCsrAdKKYPMqSAVlYsbsDWA7Xo90ybaPZ3JfcuL9xjxfTPXLZP5gJkNzApMdUb1FKBnO03H+6Q0wK6/ZY9L6OzNdYraMXJVq+lbg1TBFAXgYUtALpqAonRa1kyd2cZKO3GAJ75o4o3y5r5ne7Yeeuw9+6R3735id7F0/4m9UoJi8qDEqsquRfqMBf2/14B0ACW9SaSeON2pIKWuUitO4HWOaImWO0VrQGCp2wboTzz14uX50bjGXBP76OmJmicUin3Px55Gq3ORe9s7u3I5WNEZqB//qad39p56HNCPekDJWH1xEJsCpwXSlj35t0h56AQU/R1NEriHB+6qO488OLbYCmLDPvZv66wmgK41ySpcdRKOnrl86dWPNKGkIPJcv/kKqw6kJpSmQMrreGuDi129SqNy42YxKTnHRUMAACAASURBVHYtWHYDOpaX93pl3KN1PlDkknjxGa/T4h5ahyhfr21wLxzLgfoYkOw3e8zHPnhUwlSTbfj8uR977Fo8SctTVW0eyDKVyJOHpz6j66tl8mxlebYetuaAP5fPW4XUY6K9SdULYURxxFa5AKVoUlClFKWb9/1KUFoKUprPXGhp47XiPN5A5vJUZnqvY0cnAnrBZLhmHjy4M0czeyX+oXXyTlHk++uB86wEGbB4dbRBid8XpvDV4D3/7g1STx1VYzUao2kNngxKqj6QV+XkB+7HViZbIODzorK+xW5cBB/9HvfpBQbcO1xn4MJnvirS0vQBya5On32rVrji7lXzmgsq3Kfi1mQdNfs9gkerrq3YUut+Wcet1FfvzeDUx3MUZlw2DVa33M9KHIftFbmp2q480KvtpO3CZavsx2q1q54IoWest1Stup0eIHUCrsCyOuYsHeC0HJj6gbQolLaqpLRcPQM3c+9YeUX3iaR5pNBawPI6mHbeinLIwKeKTe+hsOJy6WuEWEV6Kgn38gal5463YklZ20YKLnPNegY20uqRJx5QvbpEas0rw9JQsnuYirLPfLduGpBWhdLSkIrUkz7yMaUDRTNwlFckr6v3xozH/+q1FThFs2m1HJbOA2+kWhhWChj7WwP8eEOJPXRsn9bjNV6ZPTv3gMezobrUFsBfY3BHUNK+xhNbT79ao8zaBli9s+/71NN0IB0VSmtAKgs8ZjN+a/C2YOcFIXtAoIO+AiAAJKtTpCS8zu+VWRWLgiuqJ6/iGXwQf7KVPPtYsNw+uhUjUkgtWFbAFC0y6GojL6VPbUPvush1Q72qqhHtzXY6BpC4ThpzyjdknimUloZU1KHQOTw3Ctfo82xLqq9qR88GWiUfrmMFdF58ic+k0lUiVRnZ4yNYwbOTF+2D125bXe037020DF+t8xI2UiitNcCjfsd18tzoyB3HdXPjXpV+1EoD987S+C7ePCBZvosFuudW1rt+qeA5u34tAGkZlgq4V2yzxIDj+0RQ8oLldp3njtn30coZD25Np/XlzaaVeBarAy/oXbGnl+ZYQLJ7e29qaZW7FUuCMl8LoFPtieuuQDUfSJuH0qGxntzvUj3m55hQwkCEUqi4Ydk1FVtpXMtTQ+qaId/W0r/eG+dV83vTEIfCa6Wi7RJsk4oC1HujnHweur1dFzugK3bqTeO93ThbfWvF0KYoJFY1Wn4dS0g7dYwtedb3ppXSlSGfdPvEVANmHezYMMrKw/DBAK1c05MGLhVUj7dqVlFTfE8bhHy4nb0zjWGrj7TgWnW1vXpkcFIAYF8V3tumu7IrCyk99sSrs7xd/Z6L5gEL6apxrxaEespuac01u/8NfzK87DAI/id6s2+mPwMoXQdStFy5BKR0Z+6i1t5IZp6ryAqp8laVqCoRLDiGpPev7DHyAt+ZmqyYW8vruVG9bpN35rin3qIz5VUxVe+vq2WV59j0wV1eZcP1GFf6yMpV/su4bbDRxqH05MHRC1Zoz2iozN0Xn9vdefNDl+0/FVJbVEqVAVZJE8WuAIZMgeg9WoM6W6VkdYbNl638W2WMVrVa8MRv1aX4Chw8ty1SelHZ2G6Ve3I+vfuMGDxeEDsq40uvfml3/xveurvvnmVVkt1vw1A6VEi9m7kYUEr8yuC1NDcFTtGgw/etHddVW6nrVRlwlgZgit5/50Ey+g75RaDUM5qyuilUM0BAIVXsuYZCs/r07MrmSZtVlk7+aqe1FNLGlZIfQ8o6kf5uYNqTl9QTp6kqqZsCp5b9IgXVUk4tOHj3ijaLerEqXfWz/Ly31HCe2UCvKiLAzf6FO9ezJy5aGGCbeO4o/54B0LNvD5D4+mlnLy3rsh2My7tLhs17qeGmv3DZ+naQ1m6s7p1dxQ3SCuzxHSqQaqkTXpbn2R336Bk8vaDJgqwYiF68pkehZMHqDETsjjGQ+DrEqVjxMcxay+y1HnORyvKPVr94PxI/yIwXRrROiuD25rL2AoldtiXGTSvOdFHm9YC0FxHbgtJVDGkJ4/Z0PE2brT70Qoo7oL7zzH5rvZBgKqS8PT4RlBSIHpzURh54qu6WByU9fdLy4hMxW+dUQZ1wkH4ulBTM3E72f44fedsb8B1O7WS3jsvGbmJ1pc3u3xs/4kmYj8rVY3Mtnf5+2Pa3BkrXg9psiOjUvKXglW+d3x19n9RU8E2FsQcxzstbto7u5QEhchFbeegWguhYXlZNHBCfaguFNKtbVmZ81jjqHB0trCD2bHTn/k/sgeDtI4o8CPv+KvDsvyiA+7elfejeRyc+dLsukDaklC5iSJFsXMud6+2wGmyvxqR671NNX3Ejq3lpOo3V2O9Vly4Cmfe9p9w8lcaqyatT705xho66017+UTzMU4vZFge+hu9tQMIHk21PvOe5V555fUXs8IUBBiH7GIh0nLWOyr1uh/WBtBkovfzaP9nXH7TXhmHjeGcK2+9zFFMVetkK4FYglS3FzwGVgkVh5QEF11TVk6coqoH47MC9yG3KbGLutS73e6tsXrBdFaiCzP4GkLgfW3/ih2G1jP/886/uPv65e3Z/633+iz+yOvHvDEF/LB0HSJuAEoCkBowg46kpQMULZPc0zNJpTwmpNVSUF2PxvmMVEgHJUx48oDO1Ef2O7/kQOitDtHmzpdQA3FbQvgXQCMIKRrynTfu8p5IweUP5wHWzv23fkDe5R/26PpEfD0gnh5IHJC/opspJ4z+VeBDy8FRRpoDmwErvd0pQoR4ZsCpKK3Jn1FZRsFmVjweHbL+PF+fB/XHYnCqXSN0wSBUaHgAzaEIxqpLUepoC8zYtstcA94vBY///pRde2f2+B+695mFMgRD6qT8WbgmUMoXUAk3kwqkcVSCsCZ8p4OpZ4ZuS/5LXtEDmAcaLSXF5KkFvVjc6uFWBcX4eeFrbBxgwkXLismsMquVaZlDS12tz0JonY/RdA9G33fe13VPPv2nvur3jgV/f/fA7X94nhVLCdRoOse8rsarDcXNcIJ1QKfVvjoykbM/Aa733Cg1WjS/13DdLuwX1lJXRfs8UlkInc1+iwDkPZM91qkJhTmwK91CYKQxRVlZklfJZGn2bLfK2gLUFpf/RZ5/ff/XH3vGG/b9/4cm7u//1+ft2f/59X9q99+1f2X3u5W/aPfvyxVlVBij7/NC7v7pXT/bxYrQe9LjdDsfI8YF0EihBIWUxo7q/e2VSTwlVXLtTK6hzgRJ3XgVU5vJ5v0cKyxv4Ck11H1txH74Wq3j2HR+VwhDCb/av56apS2jpGMDmkumrubUMvNIGgJj62d/zpTu7P/LQq3vg2P9NCZkKUsiYarKPKacP/cJb9sB6/Du/vHv0/ru7h+97bf8b3Dvcv7UCZ2muxt1pgHR0KKnLpvGj9oYt7ZaHMGo9qJstq54CSlym6k7y2AKn/UVPWcxKkwHMruc0LVeQV7b0Ov472oMVbeK0a22Htr3Xj8+AYmC2XNAIZvtBd/8n9oDBB4rH1I+ByYBioLHPhz9z3/5fuGhqW3XZbEXO8jH4mOLie1ieHAy33/T6CzAt/5Bt1if496Pt6K4EtXnPRBUUnC5z8SLoVdRUj1F70p5TXKlVLwNTFNTms4uqtmmBSyFVhVz13pbO6vLBjz69vwRvC9ZXlmfHASMfvu/Lv/mJ/Z+AD35jYLQWe5De0mBfEgPOfmfIKYTwu/0L8CmYbgWUoqC2dhJPOXkdKYr7tFbWLmaAfLerplszxoS8z9F96xngXlp1/3rBpQoJ98i2KHiuF5eP3Tscp2LfmWqy3eT8O85DilQY8gWsP/alf3npmtlv6lrZd557hVU2nVRVCX3X2x6+3IAMUF0HzgXMVElBNZ0aSFaO1ZVSD5DmdnRc31JMuklMVVJVoc0pq95jKSh5h3ydo2sIYFUUkLVD5N5V4ljajgAQqyIvDsXXqavp9Q3L41OvfWz3dz71xt2P/8EvX8LH0iL4bArHQBWtkHlKvzVpop8ZoCxvqDGDnMWrLIDOKuuhe39kTrde7NpVocRBbRgez9xMCWQrdCKZm4EHHcG7vm/bvd8OEdi8DrQUkKJjK9YC4GI9sJFRyyVUGNnfuurlpeF0lTowkCw9qyMOrmug3NIikL6f/ekREgSs+fEPHR92DfoitgFASXkhC29Htpcn6nz9WbnTBba1HVaE0sUDtt5eCS5Ea3t7y01Do3nqSIPerftlcSi9DwOt0qmR3stnaSB598jKuFQZsvss8Xu2JcHbYuDdN3Ph9BrdiMkA0riSviEYS/9wtTz3jB+Q5YkSq2u6QVLHFAMGrpk3LqI22ILLxmVbBUrssnm+bSRDUbApsR+uVASaiiz2ALbEgFLALgWDnhMDK/VYqlyVe01NE8HJW4mbAiVWXJannjpQ2fiJ++IRkmhitO8ZMhgbGrzG9YCaQkd3fXM+F8fWth7S3Y5KsnotDiV+uNZugP0V5tPah1cZvA7jqRwPUuqWKIgiAGnniPLJXEOFYOaO8n2WGPjRecpZOXpBsERZe+85JT0f1q9QmZJfdd9TK+/Hvv3i5FP9RB4A1BQHp73x4AHLW9rHfVkYXF9MOu3yv2efRaGkT/uzMSLyM8VbSiZqXPs+WrWruGatThXFnLJOHgFy6gBXNYT7t1zfrIxTf59ah6n3m3Ndz6MxfB/e2sDqy3tjsF3nbQ2IHrK19F6/1MmEg9QMnMpZSJq/jj3ktzW3DW2wIJSuDmnL4khKcPv7ylBXMtNz86JOyrPPXBh5g16/ywbLEgFmfY9XtV5Lq6Vopkd5zmGFT5WU1SnbeIl66+5x+14D4HoMr3cUCfKLoOQFsHXS1eB4qx8CYB4ItwokK+siUGot+0eUZjC1pCcbveLGRTNRBhHvdw4gRitqlXynqIvone2tWZZ/WxNMPAFMqVvFZmulyXafR9sQenZvm0pSt8v+zo7W8fqYtmkFXDpmWHXZb1tZ+o/aeDaUnnvlpy/zjuASxWc0OJcBrKpW1GevKoyegZAF4/F776DF0r4HxJ7yVW01JU9c01u3Ofda8tpsFc+7VxVKX33rv9tfzhsZ7e83vfK1y7fq4C07l3Z03raTTYLo45mHgLF32F+3FdhWe8+CUnVjJN+UXTtAiIPgWkAN+kVBwqjTLgmkljvpdaKeQWswinbhRjOffR+VaW3V1FO3JYGyRl5TIIVyMKx4pa0V71PFxJCKXgem9W6Ng6jPX5Rp20Cyek6G0hQgqWF1ExngxEcv4Br/wcGrx0YqsGo1lsriSN0pIPA3512JsTCEOM9oyTcajK1VQq1vtCDQO9CXABIf81qxV28Zp6SfAyeci8T9yFbT8ByaPWSL3dqZCuope8+ku+U4Etd5EpR0H1I1JuQZW104e8rZPjhDxv7f49ZljVSFTZZPpFIqAxaraVZXPBHOR1NEKzHVztpaxVxCQVXq2Cqr1Z+Xv1k9m5vzDW/5s9WqLp5uCpj4qX8eC9j8aI90AErRpDanIrU23b5Cgg26oWRAqrgZvUZm8NgT1Hb8An/w7A6eD/Ly9/Z0sE9dCRJHAxoQsn89VbWXnXfe71ZbVREAxIl7z1furX9U/t52mgokfS4vuq/nyky9Z2/dNL23YufliSf/7TdrR96JjfTRijT6WxYEn1eX8wHSfhz1vYyy/W42VQ+RIVtqBXDic2UwYPkZIOSdnQ+TrUK1ZhkOJuoM57mLPHh0bxGDnA/n6nVZezunF3NqreBw/p5tegERrSJezoqvg1y3P7QGaW8Zem2G9BUo4T1tcNVwHAg/TqLegAeqyurctHqcF5A6odQ+wjZbDWgt53vG1o2XPAMhPToAZijNp7pCBvUTuU2RAuP7tYCk5cKrcex7e2KcP+zGVfd74fooZuTBxVuhbLmN9lsvDPQNrlzOfee78/6DQ/N7Bh0rqiXcPc9ty85t4jiS11ZmMz5epBLmyCbRHhtdpL2xUOo/U7tlPG+mztwsbXSoDbsPH1aVyWSUS5dSPbetVSak92DkQczua2WD+2lg+rtPvnX3sx+4cFN5NuVjJvo74dUVUTk4T66j3ksDsj1Qih6DsXsAcKqO7LepbswcSLWepdPd3fibN0dGCwoV+2ft2zOZX097fkAqKqVlgQRV0lI1XiN7zwXpYM5cuawDeIMVg4jLHQEpyt/qA4ja/hXklQXdI9nPZYrsqXWppGN76laMKpB+48v/cL8fB+4M9uuozaKjVrI2yoK6HtSqZWc4eeeHo2xw2XiCQ5t4b6nNJtyszlN+P5eVNq9uSUxpeSC1Bkc2SFGBllszJwivqkEHAKsrVUitjsNQsnQ6UNkmuncL2yOi/COb9W6+jOzmATgqCyufn//Cs/tkvImQFRJ+99684cXBPABE20CyfT89kNLjUPiVSBpzZLWtdgOstR46wbBtoxXgbDX6nIFk9W9A6QJIUcNPofcSDcJgsv97myvnlI07iRfo5tiK535497Z8eE+WnqmjYFFAVBSTusS98SgutweFbCD/6lf+tvv8ouar9tGBp+VWF6j1N/LOoKRlyOrG6bmepn6hfKM+1zN5WR6tssNWCiXc++Lh9u099d87HgMoraOQPCjhuyn+d+/Aq6ZvKTbb6FeFEerGKzOtYOcUG7D9PLcXE0sEHfue1ZkeLcMQ9jpX6wQDb6bX2JluKPTu0WoPL+ZSGQReoJ8nJA9U2NqBky3Utl5ZNB/LgxUV39OD6mVdvvz8bveWt18+qhKpqBsJpTt37uzt0DvwKh2B01QHEF8zxzXzytfKLxoIUwYB4mHe4zQKKQ+cWb21k3NHj5b/YQ9vlZO/4/pigJkr8pV7L87H4u0Nqlq9+IrneqgS9AZta3tGT9+LXHKoWRzXrBCP7pHFuBRKrS0SUZD/Uj29DiYui8Xvrq47z8C22vZAKQFI0YzY0/hz02b+dGV5VYHmXZMNeC8PAMuL26jrw/WIZDfuoZsqWxtFAZ4IOtHAxr24nF4ci+GI372jXKN2tvz5CFi1AwZ/5KpGjxV5/SJTHq3J0H7LFHRrIoomV7ULKzN2w/ixIu+ZODwLp27d9Yd6/8zcIbeZ66+5by0wcanXVlJ2rwhMvdZryX90Si/PCGKAB5SPXesFpKNgswcEy0P3KGmZuDw6kOxvbyuBp6K8a+1euJ4hyXDR+6PMWk5vEEOJRNdoHhyDUwWGtJ7qAaztX095tFxK3Kc1sbA9K6qZ44kt95x/U+CwbaCMDr+7OUCyeqU7urcEqQxU0YyXQckDUqSg+HvsMMfrlpEPXpmsL/tDOSJQYBd7tuLG5dUYjfeCwUr9PRUHNWN7qvAqacs/UnCsqFjBZe0WQY0VhU4QWie2rd7bU0peegaaKhu0GW/4rASxuQ5mNw6MZ66fB6frpwjcDJftALJ9j5nYLtyLmFPvZy1l1aOmMpcGqkn3O0WKBe/Psuf0NF7EqoVhqbOr594hkNpTNy9WU2kjXGdANPDgY++ytw+W9P/6p17bv6PeHpTGyxE1FoRrPTWhdelxmzlfbyBnismDUqTMPJsxkLzfK307AlALoFB73j2v4DSgdM0+UyHFGaFRpz520DN4vVm5J37lDSYN9qrr4Sm4yMWJVFvLleRrKqrIG5D83Yd+4S27dzzw63sI/elH3r53o/khU4bSFPhWYKkgimCO73VzbaSEMhjpfSrbBRRKXj9uxZ7g4umxNQdj5MXrLyG48+ab5bahvqn71tOBLO0SkMI9KzOQpZ0Dpd76Rel1FcvSeU/+qwvH5eeAs77rq1LOSH1UQcUwtfuxm8Z5mztn6tB7HhGup8ZPepSR595G9de6RXE8vl4f7IYyrQAoKgf3VYUSu4LmkmHlMotJRSrqIlZ2M4G0Z0iv+1YZHJxmKUhlgMrAxJ03cjsqdcsGjN7Hc8Uidy6rQ1Y+Ly7kBaeRT7aCma1KcXmQFudh8flBPfl4dcygmqmoTAn/9jf9aGbart+9Fz4opD0X93IyJlXEq2832WU7YMbaUNLWnAspD06VgGO1V7VkdjUPpMviCJZOO2vlHtkgbeURrbyxskO5oveQ8YoS7sVBf8SmLC7VE7TPgN8ClmeTaCLiulqaOQrJK1N2XAv3jwhWcRvevBjSNUYcG0pLQopjUVnnqAx2Lw06bKbUpubP17FcrwR07dqKumpBrBogj4DhqTMrFwf+4Qb2uHBL2BNw1cUEjoOtcRQvnnNrrUBm6m5AaakesEA+c5XUVDh58OHvOC5QqWav4vI68BxFVCljFUjIq+p2WroPf+a+3edf+E27H3r3Vy/fitx7P1WSnsLw2iUCut2fz8x+/Fs+UDFTdxo9ZTOabLh+UZkP4XXzVZLZZPWYUneLygVLQaq1QtKS73hWqRdKvfXOlFFvfj3pNcBt1yLepEe7VoPptoXAPubC8WF8Ubmy+JYC2ovJZO6yxhLXUElWP3XfssmlFfC+Atr5P2hb7ZObhxJXZClAVY2jHaznuiXTVly06H7VpXG+Xrc4VMGkZcA+LvveAt92gD6fva472L3nABmQUBbZ8jrKwXW3+Bg2udpeqzViSbgvlFJldc1A6b3BhkF2Ex6y7RkPZwUlrdjakDpGHKmnsSxtBigvcN5a+cH94dpkRwxzegWG1gXKBDvV8VYPTzl52ydaqkxtoTEvLwaG/AwCqo4RB8Jy/pzgN7+txcrJ0PHaL3KLL+x5O1y2A/Fx6kB376BspV8SUny+dDbjLVmHKXl5+1kiVwb5Z3BjVyfa1McubTTYvProM3rZVoaKCszqpfEk73Ec3uOE/Hrh1DrKJQMpK7yrOg8oTRkTm71mDqS2qJJahu6JeWWztd1HZ2/NX6GXQc7yhEsCCLXe5JKpMLaFp4r0O0BJtyi0NlvCxbO+UIGTtz9JQcPbKaIVONjqNqokq/tZu2+9NJwCqXODU2STDCLenp6e40O8+7YUJg6+w3U4XA6PsCgYEXuJ9k5BhXjuK/Jqga4Ftv1ACd7ph/Kb+/f8Pa/s/4zecsxQVnf1uq1un0K6VKc3yX1bC1I3FUzsTkT7kDywQDW1lrp9V+SqhXCtPvLhHYSHq7y4U3SflnKL4k/Iy3OHW1BC/6gCE4ffsXq8zYFtHbe3Sill0KooKT0APsvzWL9HK1I9blVW1kj5VPcKcf5ZDEpPatDHZfjspwhWGWg9+DCo4dpFWwd0PxJDSVVRa0vDIVhvr0IaSikbgcWHi6eoqJ74T6GY6YpcK48srtHa1BcNah7YrAZ48OFaXmHT/VJ8Emfr1FC4Zd4zdlMWKTzAe8faIj7E6g5l5lM6UQbvxZSHCunBW7naNpRSZZQHaSpKytukOeOWl5f2wK8FC68snmrJVIa6OoBP9H3k6iEAjetwiJyujnnbA/Q7hZKuprXqmdmlFTjnfVyWLoOP3usKnEMlmW2G+zaDGBVIzcg+vLQHUHPur3DztgBEgeXqfXk7gJ7NhDy8TZXRQXxR2mwfU9U1hU1wGgKOcFHFU3FpD1Xo7dmxnfWNAaXMQh2/nwpSVsS1QBWpiywe02G2g6SeC6aPh7RUk2XmwU3P+faC9azyGGKRi8uqCEcHZ+6ib88BJO4EA0pTR0/hulNBag1Aee5XawBGgXce+B6A8Dv/plDyTK+Ky9LwznGcVKABZ7idvat1iCfxywa4XK244SHQh8um7TmgVIDLEklOBSgt+1RgqeuGwX09UHtxx5b74oGBYeS9laXSBqxc7NEWPGfHAfPIJVRlpEoK1+F5Pnt+jj+eGxttpziMdQ0oDShVevcR0pwaUnp8K1fZ+82DWRS8jgYrw8oLBlfMrurKc614xzhvyoxOK8herQTY9W4m9bYFwAYXCm24bV6bD6VUGQlHSHNqSGVVrCqsihvEAzNyn1pbFaKy6jN0nkJipdRyC6PVR1zfijlp+UYcKetdh78PKPXZ62iptwypOYCau1rXagBWJpzOO6c8+46v9x7U9cDqwciD21BI7WE0oHQ0zMy70VYh1QsohVIWi2kpL28VDlaOfvP2MvGbjlvHqngqib9rlfUq3XDZspEwoJRZaKO/bwlSVTBVTFkZ2JV8etLoBk671k4TwHN5WO7XPD3Aenu7+LqhkvKWGVDKbXQWKU4Nqei4Ye/xjKpBo20FU8HV2oJgZQKc+DA6nOnNK3mRYmptwLRrBpBqLT+gVLPT2aU6NaQqBtO30bQUV7bSx8/NZed9t8qmwXJLy29j0U2YUV6Hu7XHM22V/oA0A0o91jrjtOcAKZi34g5GainaHMlNF13LWwmQHlsKoKTs32jDpP3GeSO/h+79kTPuOccv+oDS8W2+iTueA6TmwAlG9vY1ZaqLXTl+MLiys/x63GkEtns7/IBSr8VuaPpzgJSZvuLiLdFEEYCwo5vfyqLH+vL9RxypvzUGlPptduOvuCmAaj3OEjWiPnMXvfaJ3Tgvr4ug93iEZMpgGVCaYrVbds05QIoVlHeCwZQVu8oZTlFXGApp+iAZUJpuu1t75TlAKnL15sIpOr3gMAA+4khzBseA0hzrjWv3FjgHSOE87SnP1HHQnJvcO0d8KKT5g2JAab4NRw5igS1D6qVXP7J//1zPR5f5+aUFyOdqm8BQST229dIOKM214Lg+tcDWIBWppqgi2b4muG5DJaVdoZRgQKlkppFoSQtsCVKVvVBWdwWTbhkYQFquhwwoLWfLkdNEC2wBUlU4eYAaQJrY8MFlA0rL2nPktoAFTgWpHjBdVXPsRVqgyQ+yGFBa2qIjv8UtcApIAVCtFwBcVHRAaekGH1Ba2qIjv9UtcCxI5cppAGmNxh5QWsOqI8+jWmAupHL4eNUZQFqrkQeU1rLsyPckFugFVBVIh27cANKajTugtKZ1R94nt0AVUgqnOJY0gLR2ow4orW3hkf+mLDAVUmO17XjNOKB0PFuPO23QAn2QGirpGE04oHQMK497nI0FIkjdvXv3bOpw7gUdUDr3FhzlX9UCBqkBpFVN6rG0vAAAAE1JREFUfC3zAaXj2nvcbVhgWCCxwIDS6CLDAsMCm7LAgNKmmmMUZlhgWGBAafSBYYFhgU1ZYEBpU80xCjMsMCwwoDT6wLDAsMCmLPD/AW68BtbcWb40AAAAAElFTkSuQmCC;" parent="1" vertex="1">
          <mxGeometry x="460" y="300" width="95.76" height="70" as="geometry" />
        </mxCell>
        <mxCell id="ZKtt7pXRlVkyNbNoVnik-3" value="FieldSet" style="text;html=1;strokeColor=#6c8ebf;fillColor=#dae8fc;align=center;verticalAlign=middle;whiteSpace=wrap;rounded=0;fontSize=22;" parent="1" vertex="1">
          <mxGeometry x="60" y="325" width="90" height="25" as="geometry" />
        </mxCell>
        <mxCell id="ZKtt7pXRlVkyNbNoVnik-7" value="ParticleSet" style="text;html=1;strokeColor=#6c8ebf;fillColor=#dae8fc;align=center;verticalAlign=middle;whiteSpace=wrap;rounded=0;fontSize=22;" parent="1" vertex="1">
          <mxGeometry x="60" y="472.5" width="110" height="25" as="geometry" />
        </mxCell>
        <mxCell id="ZKtt7pXRlVkyNbNoVnik-8" value="" style="shape=image;verticalLabelPosition=bottom;labelBackgroundColor=#ffffff;verticalAlign=top;aspect=fixed;imageAspect=0;image=data:image/png,iVBORw0KGgoAAAANSUhEUgAAAH4AAABWCAYAAAAJ3CLTAAALsElEQVR4Xu2cBahUXReGl93dYHd3I3aA+tmtICqKrdjdHYiJ7YeFiq3YgYHd3YWt2J0/z+Y/w9zx3m/OmXvGmTv7LBDRmRN7vXvVu9aeaL9///4tjmingWgO8NphrhbsAK8n7g7wmuLuAO8Ar6sGNF23E+Md4DXVgKbLdizeAV5TDWi6bMfiHeA11YCmy3Ys3gFeUw1ouuwoYfFfv36Vnz9/Svz48TWFyf5lBzXwv379ks6dO8vChQvVymvUqCFr166VePHi2a8Jze4Y1MDPmjVL+vfvL58+fVKwxI0bV9q2bSuzZ8/WDCb7lxvUwNevX182btwYZtV58+aVy5cvW9bEt2/fJGbMmBI9enTL14biBUENfO/evQWrBzQE0KpXry7bt283jcW7d++kQYMGsn//fokRI4YMHTpU/dFdghr4169fS/HixeX58+cSLVo0iR07thw/flyyZctmGrdmzZopr0GCiJAgLl++XPAmOktQAw8wxPddu3Ypq69SpYqkSJHCEl7p0qWTp0+fhrmmS5cuypPoLEEPfGTBKVKkiJw7d851mzhx4sjIkSNV0qizhDzwp06dkkqVKrkwzpAhg5w4cUISJkzoFXcGkBctWqTyA8JL3759JVGiRF6viwpfCHngAeHhw4eyb98+SZAggdSqVUuVhWake/fuCnjCDZ4iS5YscvbsWdPXm3lGoL6jBfC+KPfLly/KK8AYGoK1r1ixQv755x9fbhlU1zjARwDHhw8fJFmyZPLjx48wwC9evFgaNWoUVCD68jIhA/yrV69U9o47tovSrVy5shw5ckSVgpSTSZMmlRs3bkjKlCl90XVQXRMSwM+cOVMlXtT5kDQ7duyQUqVKRVrRWH3Xrl3l4MGDkjFjRpk7d67kzp07zH1JALdt2yYXLlyQHDlySMOGDdUmsVseP34snTp1kmvXrkmxYsUUbY1H8lWCAngUB8mSKlUq6dGjh6ROndr0ei5evCilS5d28flcSK3/4sULvwDg+WKwi/PmzRNyApLGOnXqqDzATvA/f/6sNtyjR49UzsEGh7o+ffq0zxR0wIFHab169VLAwaUDGly8WaJm1apV0qFDB3n//r0LExTz5MkTSZ48ebgbCKu5ffu2UqYVFtDzZs+ePZNMmTK5WEE+hxk8duyYFChQwPTm9fbFw4cPq2oE+tkQnsOmz5o1q7fLw/084MBj5S9fvnS9HFYzceJEoZQyI9TpFSpUCGPxZN9v3rwJ1xomTZokI0aMUFYDG0iYaNeunZlH/fEdNlCJEiWEkGBIkiRJZNOmTeqd7BJ4B1hL9+egp5s3b0r69Ol9ekzAgQck9wVh9aNHj5YBAwaYXtDgwYNl2rRpCkyy8A0bNki1atX+uP7u3buSL18+wXUaggKJn77ESzYOFod3YXYA4T537txRiaBdgnsvW7asyiMIKVh71apVVXj0NaQEHPj27durmGiAwaJOnjypYpgVuXXrloqBXIcXCU8OHDggdevWlbdv37o+ZuMdPXpUbQhfhOdS3mH9uP3Vq1dL4cKFfbnVf16DfvCEhEES1549e6rQ6KsEHHishowc94iVzJgxQ8qXL+/rev7zOso9Yrox2MGXAR6LhdXTSfwK/NWrVxWg0J2tWrWK0BL/psJ5nxYtWqhHYjH8u2LFin/zFYLiWX4DnkyUGTnIDxScOHFiOX/+vNAmtSokMX369FGuvHbt2jJkyJBIuTniJBk570JeoKP4DXgGKKgzDQF84tLkyZMt6Rn3nCdPHlXKkECRAzBcQfPEEd814DfgiaVkt+7SunVr+ffffy29LRO2kDrucZlNhCcxMz9HxdCtWzchsaP0mT9//h/sm9kXIh/Zs2ePfPz4UeUhadKkMXtp0H3Pb8CTsM2ZM8cFGJYK2WK1s7VkyRIFHMo2BPeMuzZTylD2EHYMvp06G749osw/IoTIqimpIH4Qng2VW6hQoaAD1cwL+Q3479+/KxJm5cqVKo4y9cKMvFWh+YKr529qdDYQTB11uzdhs1ApeHbYCBONGzf2dnmYz6dOnapyCzacIXDmEEhmBE6feUEqCKaCMmfObOYyv33Hb8Db+cYkdUzG8jfUJY0TM24e10yZ5gk8w5Zw6laEOT08mLvg6j3n+cK7J6C3adNGHQahicT7rFmzRq0lUBIlgI+MckgoFyxY4JqiwdKYwTM7hWM8G6AAz8g18GIAt379eq+vx/QPG809XMEfQCSZCVdeH+DDF2wHnsVRt0eGVfJhHRFegrWRUKJ86FXKQl/m5rjPwIEDBZePlCxZUrZu3WqK6uX5eCl34LF8gA8UcWQb8MzAk7gRxxDi4fDhw8MFhPgPP06CFSwHIQGWMe579+5J0aJFVfMlPCF8kCha2Txw7LSO3XsE9Pfv379v5x63dC/bgK9Xr5464WKcemEnw8HDjbsLtT3EDkqgLme4gTIvkALovANu2/hp33Hjxqky0i4hGaX9jODeCxYsqHoEdk0LWX1P24D3bK/yIizUcI38G6DTpk2rhiQMweKZXM2ZM6fVd7ft+zSFGMH2LBnxYnZ5JGhikju8HUKOgX7Gjh1r2zqs3Mgy8HShsFpcVbly5VzJCTuYwQBDWNiECRPCWA1HobjOOM7Ed6FyKa8COcBIrKaX4N61wxKp933td3uC4KkfPic55NmBEEvAUwZRQ5OY4BKbNGmiQMN1Uc8ynIjwWfbs2dWgorsrY7dTV7uzcFgURAg1caCEfAOPY1g864HHf/DggVqrHUIogcAyQiF66devnxoKCYSYBh7QsE53AoM4TkIEo4VQZwMi8+jE8fAaIAxJYF2xYsVSSqA+tsrf+0NRe/fulaZNmyqiCLoZS8yVK5dtjyJsMJUDjY1hkDzu3LlTVUCBENPAMx6F2/N003DpVlkwLIlMF7ePCwwmYYOzKf0hTNJcv35dlbpM5AaqhmdtpoFnl3LuDKs2BDdNqxW37kjU0oBp4FkWgxW4cGhKdu2yZcvUHLkjUU8DloA3Ejd64xAYZvhyu1VCIkaeAfUaiOfbvZ5A3c8y8IF6UeJjy5Yt1WQpmTYJGDRsKBxnCoROowzwHBmi/DFKQRIwxrDMNEn8pVjynunTp6tOGwdA4C18ndb11ztGdN8oAzx18NKlS8OswwrfzYYZP368XLp0STVYaNZENnsfNmyYYia5Nxk65S3VCgc3g11sBX7z5s2K0KGOp5OVP39+29Y/atSoP5o+0MSwgd6E/neZMmUU6MaBBCjaLVu2RKqk4ogW9bkhbCQOg0SFn1mxDXgy/I4dO7p2v3EwgukZO2TdunWKKTROrHBPKgsU7+1nTegYMoLleQQJSpYS1VfBvUP4uAM/ZswYFZKCXWwDHpYLRboLo1fEQDsEbwLj53440izwzNzVrFkzzLVsTNxyZA5NYt3EdcPVU+nQryAEBbvYBjwkjjGIaCyaGTu7fn4Ua+V4FDNruG64bpI7EitvQgsYzwP5xLVQySRh9BciUxKS3DG1ayR3WHsgu4ze9OD+uW3AY9kcXjQaHVgUI83M19slHIIgd2CDEaN5npkE7dChQ6qnwA8msIHgyTmqZefBRrvW+LfuYxvw7H6GKkjuyG5xg/46A2dFOWzIQYMGqYYQDREy+t27d9vWdbPyLsH0XduAD6ZFGe+CW2cTGq1Q/p9EkIEIqGedJaSBJxGk5PIcr+ZXOJo3b64z7ua7c1FVS7R9r1y54vq9OjwAZ8w5y66zhLTFAyxVAB3EM2fOqKle2D/3nzjVFfyQB15XYL2t2wHem4ZC9HMH+P8DC/XL79lA4TICHuriAC+iiB3Gu+nzU/ox/MmRp1AW7YGnW8cwh/thCuhgZgkZiAxV0R54zsrRPnYHnh9P4Fw/jZ1QFe2Bj8ji6dyF8vSw9sBj0RxsoNY3YvyUKVPUQY9QFgd4J6sP5f3trM1TA47Fa7onHOAd4DXVgKbLdizeAV5TDWi6bMfiHeA11YCmy3Ys3gFeUw1oumzH4jUF/n8mKWdZN4atQgAAAABJRU5ErkJggg==;imageBorder=#000000;" parent="1" vertex="1">
          <mxGeometry x="330" y="455" width="87.87" height="60" as="geometry" />
        </mxCell>
        <mxCell id="ZKtt7pXRlVkyNbNoVnik-258" style="edgeStyle=orthogonalEdgeStyle;rounded=0;orthogonalLoop=1;jettySize=auto;html=1;fontSize=12;fontColor=#006600;" parent="1" source="ZKtt7pXRlVkyNbNoVnik-9" edge="1">
          <mxGeometry relative="1" as="geometry">
            <mxPoint x="507.8799999999999" y="410" as="targetPoint" />
          </mxGeometry>
        </mxCell>
        <mxCell id="ZKtt7pXRlVkyNbNoVnik-9" value="" style="shape=image;verticalLabelPosition=bottom;labelBackgroundColor=#ffffff;verticalAlign=top;aspect=fixed;imageAspect=0;image=data:image/png,iVBORw0KGgoAAAANSUhEUgAAAH8AAABZCAYAAAAXSPs4AAAMC0lEQVR4Xu2cZaxTTRPHB3d3dwkQCO7uDsEJTnB3PuCQ4O4EeB5IcAhOCO4S3D24uzu8+W3e05z2ubenPW1ve9szCR+4PWvz352d/c/sRvn79+9fsSQkNRDFAj8kcVeDtsAPXewt8EMYewt8C/xQ1kAIj93a8y3wQ1gDITx0a+Vb4IewBkJ46NbKt8APYQ2E8NCtlW+BH8IaCOGhWyvfAj+ENeBk6N+/f5cxY8bI4cOHJWfOnDJhwgRJnjx50CgrKFb+jx8/5N69ewqYpEmTeg2cunXryt69e+Xr168SI0YMSZ8+vVy5ckXixInjtTb8WVGkB//y5ctSqVIlBdDPnz9l1KhRMnToUI91+vr1a0mbNq0wsTRJkCCBrF+/XqpVq2ZX/4kTJ6Rp06by5MkTyZ07t2zatEmyZ8/ucR98XUGkBz9Llixq1WsSN25c2bNnj5QsWdIj3b169UrSpUtnCP7Lly8lW7Zs8vHjR9VelChRVLm7d+9K9OjRPeqDrwtHavB//folMWPGFH0mGuBPmzZNunTpYlp3V69eVfv8ggUL5Pr16/Lt2zdl9rEE/EYbmuzatUut+vfv39v+Fi9ePLl06ZIwMb0p9OP48eNqgpUoUUJix47tUfWRGnxGnjJlSmH1aYLiN2/eLJUrVzalmK1bt0rz5s1tqzhRokSSIUMGyZUrl0yePFm1p5ezZ89K2bJl5cuXL7Y/MyGfP38uiRMnNtWHsAphiYoXL24ba+rUqYXtxhMfJ9KDzwqtXbu2RI0aVZnotm3byrx589TqMCMpUqQQFK1J/PjxZdGiRdKiRYswq8PqtGzZUpg0+ByY+sGDB8vIkSPNNB9umfbt28uKFStUGwgTrF27drJw4ULT7UR68Bk5YF28eFFSpUolefPmNa0MCmLe2U40iRUrljri9e3bN9x6mQBbtmyRO3fuSMGCBaVixYoe9SGswqVKlVImXy9YnEOHDpluKyjANz36MAqWKVNGTp48aZsA7O8HDx6UIkWKeLMZt+saOHCgzJ07V/kfCMfNPn36yPjx492uSytgge+gOvbq+vXry6lTp5SC58+fL61btzatYG8V5CgL73DkyBFVZfny5ZW1wTKZFQv8cDT3+/dv5UeY9R3MAuKsHNvLs2fPVJ/Y4jztmwW+L1CKJHUGNPgQJY0aNVJna4iT1atXS9GiRSOJagO/mwELPmYX5uzhw4fy588fpcmECRMqjzqYgiueThHYTPwSjn4DBgxwyzENWPChbDm26ckTCJc1a9ZI9erVPdVZwJQ/evSodOzYUV68eCHlypWTf//912VyaPv27Ypd1HTk7skkYMF/9+6dcmr0gRXYu/379weN6WeC58uXTz5//qwmI6uX8zxjdEWIX8Dy6QUyauXKla4UD+zrWsOGDZMZM2YIcXWONKx4omqeerkuaSYCPlq6dKn07t3bBj5NcsLQYglGXcD/OX36tN1njRs3lnXr1hkVVb8H7MrXek/gBP48a9aswsBQTnjCMYhwKpOjQYMGynIEsjCRoW0/ffpk6yarH/BdmeDLly+Xbt262cw+vMS2bdtUiNsV8Sv4ePFdu3aVR48eSYUKFWT27NmCaTcjOIKwcFgJhIjXmTNnDCNrb9++VU5lpkyZBJ8iIoW+snpv3bqlAGfPJnMIx81VYQKgN2IKI0aMkJo1a7pa1H8rHyaNxAdCoZAXgAVrtXPnTpc7r/8Qq7Bx40bbyQALgTO0atWqcOvjtw4dOig+n9MFR0lYtIgUmLvFixerBUBMoEaNGhHWvN9WPorv3LmzncmLFi2a+r+ZOHXp0qXl2LFjdorDe4aXD0vYIthKUL4mrDyycSLaAkQY2g4N+Q18VmmbNm3swMd0AYaZDJhJkybJ6NGj7Y49Y8eOlf79+4epW0LBrHJ9EgY8An/Pnz+/v/CI0Hb9Bj4gFyhQQB48eKD2afZ6sm+mTp1qSgEQQf369VPxbZwlHKEpU6aE6yA+fvxYcuTIYbfysTis/CRJkpjqQ0QVOnfunOI7cPDYtkg2MSN+A5/OsurIjuG8W6VKFZWI4YqXa2agYZUhSYM4PR42fMKSJUvCTdrwVpue1gMHUKdOHWXh2CZJKmUyZM6c2e2q/Qq+2731QQEcLWIIZNumSZPGBy14t0rHsz2Obffu3ZXH766EPPjuKszf33NCunHjhl03yDfgyOeuWOD/X2McN2fNmqWOe+z5ZMjgkwSa4NTi3Or5fBi9WrVqud1Vv4JPMmKvXr3UWRz6dty4cer45w/hsgf+h6ZUEjfZS/1x+QKuY/r06WpPJxkUAkwT+Ijhw4cL1DA6YzKQyGlG/Ao+TBa58fpZvHbtWpWNi+CEcRmC9GRfO4KOWbu0b9acmgFCKxNWpI6/6SeAJ/Xry/oVfMfbNnSM8CaM18yZM2XQoEEKdKhX4tYZM2b01rj/U49j/j8fwPxhjVh9XN8isRPvmsgbq9IXAsvpmJFbr149dRfB2+JX8ElzPn/+vG1MkDtYAwZbtWpVm0XAo2X/JcDjK2EfxZzqQ8jaBCCZk5WHX4DZLVSokJqMTA5HYauAX4Crh7dwvNdn1H/SsbUkTe1byCiSNb0tfgWfGU4gApIH4KFVL1y4oJwuLltqQRoGzUrT59N7WxEA26lTJ5VMAcCa0C5JJdwL0AQaGDKKoJRemMikfmvxeb4jtk42sKsCyNwY0mhn6uBCiKuROlfb4Tu/gk8HuPKMSYOtatWqlbD3btiwQTkx+lAn4Vn4eF8KbGOePHnskiuKFSumcgjfvHlj1zR59DiIeoFt++eff+z+hpUguuiOADYOHxZvyJAhygr6QvwOfliDgqpltRw4cEApgJWIQnxxE8axfW7FACJRR1bxsmXLVHSQvmiWByoakJs0aWJXnMnLlSq9ECfAmgWiBCT4KAozTESOq1isPl86e0bAMBG4+EnOABOxR48e6iaw4wmEbYyQrN5kk4nEdhKIErDgB5qytAsTrHqif+EJmUdwBvgr0K6cXgJVLPADFZkI6JcFfgQomSbYLkjThrTiYYVkyZJFUMvhN2MIPinUpAdz5IDcMJNo4WyUOHckduBpk4PHOTfYBBobjx2vHweWf/gz/k4acQr+zZs3hfQoiA9A4ryL12smzSosQNlHybLlxSvtYQNXExgpS/YrfST3HWLI1xSw2UlJggkZRfoLKJBWeoLLbN2elHMKPkcdjj7adSnO4qRGuZNd6qxzpExB8mikCN/CmpHk4ey5M4CHdydNG8+ab+EF5syZ44kufFYWetiREyBeAWXsT3EKPu/Oke6kF44tZMB4QzD3gPbhwwdbdUSq7t+/7zTn/tq1a1K4cOH/pGDdvn1bXeh0RSCXiB9Aw3Ku90XgROsHpBVZStokZ+ukvd27d7vSVZ994xR8TPKOHTts78Cw7/M6hNkQouMomFg8dKQphb2QdCRAdGbCcZyIX+snDQEXrJQrz7IAPI8bYYaxIlgOYuJaNNHb2qYNGEGybaCLuYDKVufvSyVOwccskVvHc2R4q9oDQN7cW3F8uF/GRUX2bky5UT4aHjPfaJQrkwZFko7lyksVnL1h6PRPuJmhYd2dJExWJpw3HlZwt+2wvjf09lHQ06dP1eoIpKxWXt5s1qyZAhzrQR4A2biuCK9nOV7mYOLxdl4oiSH4waiMffv2qQxYPQ07ceJE6dmzZzAON9wxhST4aINAEW/lQcOS4w9f783tLDLMopAFPzKA4+s+WuD7WsMBXL8FfgCD4+uuWeD7WsMBXL8FfgCD4+uuWeD7WsMBXL8FvhfAgQiDHuYOHfRyw4YNI8Wx0QLfQ/ABnkcmCFJB3RL/gEH0VvDLw+45LW6B76F2We1cPtE/70K+A3/3Z9KpK8OywHdFS06+4QoXt3IcI4zcuvF3po7R0CzwjTRk8DvhaCKMREDZArTn0Ak4eSvjycMuWty+rxRIvSSXEGEkr58II+/luBph9GW/jOq2Vr6RhoL4dwv8IAbXaGgW+EYaCuLfLfCDGFyjoVngG2koiH+3wA9icI2GZoFvpKEg/t0CP4jBNRqaBb6RhoL4dwv8IAbXaGgW+EYaCuLfLfCDGFyjoVngG2koiH+3wA9icI2GZoFvpKEg/v1/12leUFTrc/cAAAAASUVORK5CYII=;imageBorder=#000000;" parent="1" vertex="1">
          <mxGeometry x="465.09" y="455" width="85.58" height="60" as="geometry" />
        </mxCell>
        <mxCell id="ZKtt7pXRlVkyNbNoVnik-250" value="ParticleFile" style="text;html=1;strokeColor=#6c8ebf;fillColor=#dae8fc;align=center;verticalAlign=middle;whiteSpace=wrap;rounded=0;fontSize=22;" parent="1" vertex="1">
          <mxGeometry x="60" y="680" width="120" height="25" as="geometry" />
        </mxCell>
        <mxCell id="obYhBMBtGKUSiBPRDNs6-4" style="edgeStyle=orthogonalEdgeStyle;rounded=0;orthogonalLoop=1;jettySize=auto;html=1;fontSize=22;" parent="1" source="ZKtt7pXRlVkyNbNoVnik-251" edge="1">
          <mxGeometry relative="1" as="geometry">
            <mxPoint x="240.46500000000003" y="410" as="targetPoint" />
          </mxGeometry>
        </mxCell>
        <mxCell id="ZKtt7pXRlVkyNbNoVnik-251" value="" style="shape=image;verticalLabelPosition=bottom;labelBackgroundColor=#ffffff;verticalAlign=top;aspect=fixed;imageAspect=0;image=data:image/png,iVBORw0KGgoAAAANSUhEUgAAAHMAAABOCAYAAAATpymVAAAL5klEQVR4Xu2cZawUSxOGC7jYxV2CB78kuLsTLLgEDwT34MHdCe7uGoJfXIN7gODu7g5fnk5mM4cLTLNn9szuflN/IDDT011vd9Vb0hvu+/fv38WVoNBAOBfMoMBRLcIFM3iwdMEMIixdMF0wg0kDQbQW12e6YAaRBoJoKe7JdMEMIg0E0VIC7mR+/fpVPn36JFGjRg0iGOxZSkCBOWzYMOnXr598+/ZN8ubNK+vXr5e4cePao4kgGCVgwNy0aZPUrFlT3r17p9QeMWJEKVOmjGzYsCEIYLBnCQEDZo8ePWTEiBEhVh0nThx59uyZPZoIglECBszJkydL165d5f379x61Z8yYUS5cuKAFw8GDB2X8+PFCkahdu3ZSqFAhrfcC6aGAAfPDhw9SsGBBuXTpkke/27Ztk3z58lnqe9++fVKuXDmPiYY8YbaLFStm+W4gPRAwYKJUWOyWLVvk9evXUqRIEUmePLmWritWrCgbN24M8Wzp0qVl69atWu8HykMBBaa3SoUocYrNwqnctWuX1pAfP36UU6dOSaRIkSRr1qwSPnx4rffC+qH/CzAJYerUqeMxs3///bcsWrRIqlataqnvBw8eSIECBeTJkycqJALMHTt2SJQoUSzfDesH/ArMo0ePqtgxZsyY0qRJE4kXL55t+lizZo0MHz5cEaAuXbpI7dq1tcYGcMKfL1++qOfxtz179pQ+ffpovR+WD/kNmCgMBcNWiSFJBpw9e1bix48flvr4z7cyZMgQgnTxQI0aNWTlypWOzutnH/cbMNOmTStXr171zBH/RLanV69ejioN88yp/vz5s5oHJrpv377SvXt3y3lhBSZMmCDTp09X/nbgwIFSuXJly/e8fcBvwEyUKJE8evQoxDowh6NGjdJaG4p78eKFRI8eXZ1su+Tp06dStGhRuXHjhvKZ/H3dunVa3wBITLKRtcJEY4FKlChh1/RCjOM3YLZs2VIWLFjgSQpwAghDChcubLnwO3fuCKGGcbJHjx4t7du3t3xP9wGS+5cvX1anK3Xq1BIuXDitV//55x85f/58iGfr1aunyJcvxG/AhP6TmVm1apVEixZNAESXpOTKlUuFDijdMIXEkCQZnJScOXPKiRMnPFNgEzRr1kxmzJihNa1Xr17Jzp07FWkrWbKkIoa/E78BU2t1v3gIs2qwTR7hBFFh6dy5c2iGDfW7ZJkgS5A6gGSTHjlyRDJlymQ59v3794VNSoIEiREjhhw/flwSJ078y3eDAsykSZMKizcEpc2ZM0dq1aplqTQeWLFihQqJkiRJovK/CRIk0HpP56E9e/bI3LlzVVzaoUMHLSAZt2HDhrJ06VLPJv3rr7+kbt26yhX9SoICTDI5lSpVUpkZTBJJdIhGhAgRLPVN7Dlo0CBFUjjhhEL4udixY1u+68sHWMOBAwdCfAK3sX//fufBxKc1bdpU7t69q3zZ7NmzbVXYrVu35NChQyrRULx4ce2UG+z37du3HgVBvKiu4NucFMIymLxRJWJesPsBAwY4CyYpMYJvHLrh03Lnzv3bXRZWiowcObJK4BuCOUSJbdu21ZoC4cq9e/dUSGTnaSaurV+/vopxETJRixcv/m1IFCZmFp/ETjecOZPDBzx//lwpwUlp0KCBrF692nMCmM+ZM2dUCGIlbFJiRmJQmHTr1q1l7Nix2qGL1fj8vxGjcjKtJEzApPxEJuXNmzee+QAm5g3maSX4QfwiJwCGR1HaLiEk6tatmyqRQXwmTpyovqEjhAt79+71kBSI17x58xSDdULCBEzMWJ48eeTixYtCkZlFE9QPHTrUcs0ACYuD0EDvOQEwVTaH00L+GOtiFtjwyJEjHZlamIDJynDkU6ZMUSaJlFj16tW1zJHBVM0khbQYp9zpumL27Nnl9OnTikEjmMJx48ZJ8+bNtcCkSjRt2jT1LCaaJENoJMzA9HaSOP1WrVr9x9/SyEUg7aRQ1WFjYi0gQpC6f//9VytvS9hB0dzsE6mT6rTB/GrNfg8mpjlHjhyeRWNqU6VKJdeuXdPC8cqVK9K4cWP1PDsfE21nUoBNRVaHVBtA6FoLepIA3iy0t5C88FZsA9OoWuAPdUjNn0yY2mGjRo1UGSpFihQqAZ8uXTrLIQiFKK1R+eDkkBRInz69Yqu6Srf8iJcP0LZCdsgsEKrt27d7OaJN1+BJBBhVC0Clv7VTp05eT+pnLwIGJulPQhnMVrVq1TzxreHXaM9kUzgpy5YtU0kUs5mdP39+qJiwLSeTqwIkgc1Vi82bN6sOOieFXln8kjkkwmpQMtM1tZhnfGPKlCklW7Zsti4H8EhQ4DoIj4h5QyO2gImCjEo8k8GcDRkyRCWtnRQ2F6m9Y8eOKTYN26Ssht/UERLdnB6jKgPj1C2W64xv9zO2gEn/KrvdEPzmrFmztGNBcqo4ftgpmSI7+36IcQmJMK358+dXvlenuEwygesP5g56NgMs1O4TaheotoCJI69QoYKnakFrIrU8naoFLRgkBfAdnHACcQiKrhm0SxE/jgMPgGSZwYSxLly40Kd9PKFZjy1gMoHbt297qhYwNV22mCZNGrl+/bpnDZi0/v37O97IRbGb+ib9soaQrDh37pxW3hYiOHXqVFXLhLRRZvP1/RbbwPR2RyVMmFAeP34c4nXIwI83vrwdPzTvQeqIB43s05+kEceMGaO6+MxslTsvxMy+EsfBJLsDqzPX7XT7dwhXuOqHT0QgKBSbda2CjlIhUQ8fPlR1UsplukLVhdSlWchHUyv1lWiBicmg+MufUHQdAqE7YQgKi6QMBcGghETeVkfIg/bu3TvE7h88eLDtMa7OXH585sc+YHRG7M2J9ZVYgkmVo3z58sofIiSXOTkwVqeFOBbTZRZaMylLOS2Uwtq0aaM2mtHMRYhEkd5XYgkmndvU+AwzSCWe8IF/c1q4Fk8lHnOLYF451RTDdQQTysYk3QcDh4zZKcwNFwIBojOfPlpfiiWYBN27d+8OMQdqk4cPH/blvLTGpjGZSgXWA2GjsfsxcVYCkKQgKUMhbIi1a9eqfwtUsQSTXpiZM2d6+mSIBenK1s2iQB6o2XF1oEqVKqpkZKfQfYC/RTiVtF3qyPLly1V2x1wn5YoErSCBKpZgvnz5UnXT3bx5U9l+Yi9ynjo/2ULIkSVLFvUjEsRtEBy68vyhSwDyBBM2N3PRymJOSwYaqJZgsiAWiPmCzVIT1KXoxIrEWmaFkfqDGTstbMhSpUp5mDDZKnp/DKJnNT84BPEwBAxfyyWhZMmSWb3m0//XAtPbGRA20Odj/hl48q4/Jgm8HT+072H+6TLHX2bOnFmo9Oia6bJlyyrWjL9mI5B+5McznOx+8CmYkAtSe+YrbdyI5mdgdITGaUwyJxllU6TWaYHUGdt4BiJkNJnpvkcTF3c+zBYHEJcsWSJ0CzglPgWTRZFwJ1imZ5YWRIJmnfuTKAzzBXFCCDswY1zbw7c5KXQwYGHM/hUwCYlI/zklPgfT24VxlY0uAQiYISQqOK06oYe339V9j0oPFR+j2kPnAtUeJ3+g0W/BPHnypLpoaw4dCIsoTenWO2HRELdYsWKpvl0705Cwc6wM5T82F3dAqH86KX4LJqQJs0wHG8yRHd+iRQvt3CYnmIQH5Aa/SOqPArhOjdVJQELzbb8Fk0UBBH6Idkl+f4dre7oCYTL/rh4mmuoK9x6DVfwazNAoHUJibuTCxPLbPb+7Ehea7/nDu0ELJlV9EgBGxyAnk9BB96dbuIlNbZR0JERM9xa2k6AGLZg0mOEzyd1CVqiZcqFHhwSR1KDCAYFiM5CG5ERz2dWfJWjBROkAAfvF5P4J05w0aZJqEzWqMYzFRdofb3z5G7BBDaa3yibk4MeYzEkBzLTZB3s7ti/fc8H8iXZhz/TGGjEuYRHd5vxsmj+LC+Yv0CGv3LFjR9VqSR2W3iKdNKSTYLtgOql9m7/tgmmzQp0czgXTSe3b/G0XTJsV6uRwLphOat/mb7tg2qxQJ4dzwXRS+zZ/2wXTZoU6OZwLppPat/nbLpg2K9TJ4VwwndS+zd92wbRZoU4O9z8cRXRxd5lkzQAAAABJRU5ErkJggg==;imageBorder=#000000;" parent="1" vertex="1">
          <mxGeometry x="196.23000000000002" y="455" width="88.47" height="60" as="geometry" />
        </mxCell>
        <mxCell id="ZKtt7pXRlVkyNbNoVnik-253" value="execute()&lt;font style=&quot;font-size: 24px;&quot;&gt;&lt;br style=&quot;font-size: 24px;&quot;&gt;&lt;/font&gt;" style="edgeStyle=orthogonalEdgeStyle;rounded=0;orthogonalLoop=1;jettySize=auto;html=1;exitX=1;exitY=0.5;exitDx=0;exitDy=0;fillColor=#d5e8d4;strokeColor=#82b366;fontSize=24;fontColor=#006600;" parent="1" source="ZKtt7pXRlVkyNbNoVnik-252" edge="1">
          <mxGeometry relative="1" as="geometry">
            <mxPoint x="560" y="410" as="targetPoint" />
          </mxGeometry>
        </mxCell>
        <mxCell id="ZKtt7pXRlVkyNbNoVnik-252" value="Kernel" style="text;html=1;strokeColor=#6c8ebf;fillColor=#dae8fc;align=center;verticalAlign=middle;whiteSpace=wrap;rounded=0;fontSize=22;" parent="1" vertex="1">
          <mxGeometry x="60" y="400" width="70" height="25" as="geometry" />
        </mxCell>
        <mxCell id="ZKtt7pXRlVkyNbNoVnik-260" value="" style="strokeWidth=2;html=1;shape=mxgraph.flowchart.annotation_2;align=left;labelPosition=right;pointerEvents=1;fontSize=12;fontColor=#006600;direction=north;" parent="1" vertex="1">
          <mxGeometry x="200" y="535" width="350" height="50" as="geometry" />
        </mxCell>
        <mxCell id="ZKtt7pXRlVkyNbNoVnik-262" value="&lt;font color=&quot;#000000&quot; style=&quot;font-size: 13px;&quot;&gt;t = 0&lt;/font&gt;" style="text;html=1;strokeColor=none;fillColor=none;align=center;verticalAlign=middle;whiteSpace=wrap;rounded=0;fontSize=13;fontColor=#006600;fontStyle=0" parent="1" vertex="1">
          <mxGeometry x="220.47" y="530" width="40" height="20" as="geometry" />
        </mxCell>
        <mxCell id="ZKtt7pXRlVkyNbNoVnik-263" value="&lt;font color=&quot;#000000&quot;&gt;t = 1&lt;/font&gt;" style="text;html=1;strokeColor=none;fillColor=none;align=center;verticalAlign=middle;whiteSpace=wrap;rounded=0;fontSize=12;fontColor=#006600;" parent="1" vertex="1">
          <mxGeometry x="353.93" y="530" width="40" height="20" as="geometry" />
        </mxCell>
        <mxCell id="ZKtt7pXRlVkyNbNoVnik-264" value="&lt;font color=&quot;#000000&quot;&gt;t = 2&lt;/font&gt;" style="text;html=1;strokeColor=none;fillColor=none;align=center;verticalAlign=middle;whiteSpace=wrap;rounded=0;fontSize=12;fontColor=#006600;" parent="1" vertex="1">
          <mxGeometry x="487.88" y="530" width="40" height="20" as="geometry" />
        </mxCell>
        <mxCell id="M_Ex96TDXXYd0xyrgzXf-31" value="" style="group" vertex="1" connectable="0" parent="1">
          <mxGeometry x="220" y="600" width="315.76" height="320" as="geometry" />
        </mxCell>
        <mxCell id="ZKtt7pXRlVkyNbNoVnik-313" value="" style="group" parent="M_Ex96TDXXYd0xyrgzXf-31" vertex="1" connectable="0">
          <mxGeometry width="276" height="290" as="geometry" />
        </mxCell>
        <mxCell id="ZKtt7pXRlVkyNbNoVnik-282" value="" style="group" parent="ZKtt7pXRlVkyNbNoVnik-313" vertex="1" connectable="0">
          <mxGeometry width="203" height="230" as="geometry" />
        </mxCell>
        <mxCell id="ZKtt7pXRlVkyNbNoVnik-281" value="" style="rounded=0;whiteSpace=wrap;html=1;fontSize=12;fillColor=#FFFFFF;" parent="ZKtt7pXRlVkyNbNoVnik-282" vertex="1">
          <mxGeometry width="203" height="230" as="geometry" />
        </mxCell>
        <mxCell id="ZKtt7pXRlVkyNbNoVnik-266" value="&lt;font color=&quot;#000000&quot;&gt;Depth&lt;/font&gt;" style="shape=table;childLayout=tableLayout;rowLines=0;columnLines=0;startSize=40;html=1;whiteSpace=wrap;collapsible=0;recursiveResize=0;expand=0;pointerEvents=0;fontStyle=1;align=center;fontSize=12;fontColor=#006600;fillColor=#FFFFFF;" parent="ZKtt7pXRlVkyNbNoVnik-282" vertex="1">
          <mxGeometry width="203" height="230" as="geometry" />
        </mxCell>
        <mxCell id="ZKtt7pXRlVkyNbNoVnik-267" value="P 0" style="swimlane;horizontal=0;points=[[0,0.5],[1,0.5]];portConstraint=eastwest;startSize=40;html=1;whiteSpace=wrap;collapsible=0;recursiveResize=0;expand=0;pointerEvents=0;fontStyle=1" parent="ZKtt7pXRlVkyNbNoVnik-266" vertex="1">
          <mxGeometry y="40" width="203" height="64" as="geometry" />
        </mxCell>
        <mxCell id="ZKtt7pXRlVkyNbNoVnik-268" value="t = 0" style="swimlane;connectable=0;startSize=30;html=1;whiteSpace=wrap;collapsible=0;recursiveResize=0;expand=0;pointerEvents=0;" parent="ZKtt7pXRlVkyNbNoVnik-267" vertex="1">
          <mxGeometry x="40" width="54" height="64" as="geometry" />
        </mxCell>
        <mxCell id="ZKtt7pXRlVkyNbNoVnik-269" value="t = 1" style="swimlane;connectable=0;startSize=30;html=1;whiteSpace=wrap;collapsible=0;recursiveResize=0;expand=0;pointerEvents=0;" parent="ZKtt7pXRlVkyNbNoVnik-267" vertex="1">
          <mxGeometry x="94" width="55" height="64" as="geometry" />
        </mxCell>
        <mxCell id="ZKtt7pXRlVkyNbNoVnik-270" value="t = 2" style="swimlane;connectable=0;startSize=30;html=1;whiteSpace=wrap;collapsible=0;recursiveResize=0;expand=0;pointerEvents=0;" parent="ZKtt7pXRlVkyNbNoVnik-267" vertex="1">
          <mxGeometry x="149" width="54" height="64" as="geometry" />
        </mxCell>
        <mxCell id="ZKtt7pXRlVkyNbNoVnik-271" value="P 1" style="swimlane;horizontal=0;points=[[0,0.5],[1,0.5]];portConstraint=eastwest;startSize=40;html=1;whiteSpace=wrap;collapsible=0;recursiveResize=0;expand=0;pointerEvents=0;" parent="ZKtt7pXRlVkyNbNoVnik-266" vertex="1">
          <mxGeometry y="104" width="203" height="62" as="geometry" />
        </mxCell>
        <mxCell id="ZKtt7pXRlVkyNbNoVnik-272" value="" style="swimlane;connectable=0;startSize=0;html=1;whiteSpace=wrap;collapsible=0;recursiveResize=0;expand=0;pointerEvents=0;" parent="ZKtt7pXRlVkyNbNoVnik-271" vertex="1">
          <mxGeometry x="40" width="54" height="62" as="geometry" />
        </mxCell>
        <mxCell id="ZKtt7pXRlVkyNbNoVnik-273" value="" style="swimlane;connectable=0;startSize=0;html=1;whiteSpace=wrap;collapsible=0;recursiveResize=0;expand=0;pointerEvents=0;" parent="ZKtt7pXRlVkyNbNoVnik-271" vertex="1">
          <mxGeometry x="94" width="55" height="62" as="geometry" />
        </mxCell>
        <mxCell id="ZKtt7pXRlVkyNbNoVnik-274" value="" style="swimlane;connectable=0;startSize=0;html=1;whiteSpace=wrap;collapsible=0;recursiveResize=0;expand=0;pointerEvents=0;" parent="ZKtt7pXRlVkyNbNoVnik-271" vertex="1">
          <mxGeometry x="149" width="54" height="62" as="geometry" />
        </mxCell>
        <mxCell id="ZKtt7pXRlVkyNbNoVnik-275" value="P 2" style="swimlane;horizontal=0;points=[[0,0.5],[1,0.5]];portConstraint=eastwest;startSize=40;html=1;whiteSpace=wrap;collapsible=0;recursiveResize=0;expand=0;pointerEvents=0;" parent="ZKtt7pXRlVkyNbNoVnik-266" vertex="1">
          <mxGeometry y="166" width="203" height="64" as="geometry" />
        </mxCell>
        <mxCell id="ZKtt7pXRlVkyNbNoVnik-276" value="" style="swimlane;connectable=0;startSize=0;html=1;whiteSpace=wrap;collapsible=0;recursiveResize=0;expand=0;pointerEvents=0;" parent="ZKtt7pXRlVkyNbNoVnik-275" vertex="1">
          <mxGeometry x="40" width="54" height="64" as="geometry" />
        </mxCell>
        <mxCell id="ZKtt7pXRlVkyNbNoVnik-277" value="" style="swimlane;connectable=0;startSize=0;html=1;whiteSpace=wrap;collapsible=0;recursiveResize=0;expand=0;pointerEvents=0;" parent="ZKtt7pXRlVkyNbNoVnik-275" vertex="1">
          <mxGeometry x="94" width="55" height="64" as="geometry" />
        </mxCell>
        <mxCell id="ZKtt7pXRlVkyNbNoVnik-278" value="" style="swimlane;connectable=0;startSize=0;html=1;whiteSpace=wrap;collapsible=0;recursiveResize=0;expand=0;pointerEvents=0;" parent="ZKtt7pXRlVkyNbNoVnik-275" vertex="1">
          <mxGeometry x="149" width="54" height="64" as="geometry" />
        </mxCell>
        <mxCell id="ZKtt7pXRlVkyNbNoVnik-283" value="" style="group" parent="ZKtt7pXRlVkyNbNoVnik-278" vertex="1" connectable="0">
          <mxGeometry x="-116" y="-136" width="203" height="230" as="geometry" />
        </mxCell>
        <mxCell id="ZKtt7pXRlVkyNbNoVnik-284" value="" style="rounded=0;whiteSpace=wrap;html=1;fontSize=12;fillColor=#FFFFFF;" parent="ZKtt7pXRlVkyNbNoVnik-283" vertex="1">
          <mxGeometry width="203" height="230" as="geometry" />
        </mxCell>
        <mxCell id="ZKtt7pXRlVkyNbNoVnik-285" value="&lt;font color=&quot;#000000&quot;&gt;Latitude&lt;/font&gt;" style="shape=table;childLayout=tableLayout;rowLines=0;columnLines=0;startSize=40;html=1;whiteSpace=wrap;collapsible=0;recursiveResize=0;expand=0;pointerEvents=0;fontStyle=1;align=center;fontSize=12;fontColor=#006600;fillColor=#FFFFFF;" parent="ZKtt7pXRlVkyNbNoVnik-283" vertex="1">
          <mxGeometry width="203" height="230" as="geometry" />
        </mxCell>
        <mxCell id="ZKtt7pXRlVkyNbNoVnik-286" value="P 0" style="swimlane;horizontal=0;points=[[0,0.5],[1,0.5]];portConstraint=eastwest;startSize=40;html=1;whiteSpace=wrap;collapsible=0;recursiveResize=0;expand=0;pointerEvents=0;fontStyle=1" parent="ZKtt7pXRlVkyNbNoVnik-285" vertex="1">
          <mxGeometry y="40" width="203" height="64" as="geometry" />
        </mxCell>
        <mxCell id="ZKtt7pXRlVkyNbNoVnik-287" value="t = 0" style="swimlane;connectable=0;startSize=30;html=1;whiteSpace=wrap;collapsible=0;recursiveResize=0;expand=0;pointerEvents=0;" parent="ZKtt7pXRlVkyNbNoVnik-286" vertex="1">
          <mxGeometry x="40" width="54" height="64" as="geometry" />
        </mxCell>
        <mxCell id="ZKtt7pXRlVkyNbNoVnik-288" value="t = 1" style="swimlane;connectable=0;startSize=30;html=1;whiteSpace=wrap;collapsible=0;recursiveResize=0;expand=0;pointerEvents=0;" parent="ZKtt7pXRlVkyNbNoVnik-286" vertex="1">
          <mxGeometry x="94" width="55" height="64" as="geometry" />
        </mxCell>
        <mxCell id="ZKtt7pXRlVkyNbNoVnik-289" value="t = 2" style="swimlane;connectable=0;startSize=30;html=1;whiteSpace=wrap;collapsible=0;recursiveResize=0;expand=0;pointerEvents=0;" parent="ZKtt7pXRlVkyNbNoVnik-286" vertex="1">
          <mxGeometry x="149" width="54" height="64" as="geometry" />
        </mxCell>
        <mxCell id="ZKtt7pXRlVkyNbNoVnik-290" value="P 1" style="swimlane;horizontal=0;points=[[0,0.5],[1,0.5]];portConstraint=eastwest;startSize=40;html=1;whiteSpace=wrap;collapsible=0;recursiveResize=0;expand=0;pointerEvents=0;" parent="ZKtt7pXRlVkyNbNoVnik-285" vertex="1">
          <mxGeometry y="104" width="203" height="62" as="geometry" />
        </mxCell>
        <mxCell id="ZKtt7pXRlVkyNbNoVnik-291" value="" style="swimlane;connectable=0;startSize=0;html=1;whiteSpace=wrap;collapsible=0;recursiveResize=0;expand=0;pointerEvents=0;" parent="ZKtt7pXRlVkyNbNoVnik-290" vertex="1">
          <mxGeometry x="40" width="54" height="62" as="geometry" />
        </mxCell>
        <mxCell id="ZKtt7pXRlVkyNbNoVnik-292" value="" style="swimlane;connectable=0;startSize=0;html=1;whiteSpace=wrap;collapsible=0;recursiveResize=0;expand=0;pointerEvents=0;" parent="ZKtt7pXRlVkyNbNoVnik-290" vertex="1">
          <mxGeometry x="94" width="55" height="62" as="geometry" />
        </mxCell>
        <mxCell id="ZKtt7pXRlVkyNbNoVnik-293" value="" style="swimlane;connectable=0;startSize=0;html=1;whiteSpace=wrap;collapsible=0;recursiveResize=0;expand=0;pointerEvents=0;" parent="ZKtt7pXRlVkyNbNoVnik-290" vertex="1">
          <mxGeometry x="149" width="54" height="62" as="geometry" />
        </mxCell>
        <mxCell id="ZKtt7pXRlVkyNbNoVnik-294" value="P 2" style="swimlane;horizontal=0;points=[[0,0.5],[1,0.5]];portConstraint=eastwest;startSize=40;html=1;whiteSpace=wrap;collapsible=0;recursiveResize=0;expand=0;pointerEvents=0;" parent="ZKtt7pXRlVkyNbNoVnik-285" vertex="1">
          <mxGeometry y="166" width="203" height="64" as="geometry" />
        </mxCell>
        <mxCell id="ZKtt7pXRlVkyNbNoVnik-295" value="" style="swimlane;connectable=0;startSize=0;html=1;whiteSpace=wrap;collapsible=0;recursiveResize=0;expand=0;pointerEvents=0;" parent="ZKtt7pXRlVkyNbNoVnik-294" vertex="1">
          <mxGeometry x="40" width="54" height="64" as="geometry" />
        </mxCell>
        <mxCell id="ZKtt7pXRlVkyNbNoVnik-296" value="" style="swimlane;connectable=0;startSize=0;html=1;whiteSpace=wrap;collapsible=0;recursiveResize=0;expand=0;pointerEvents=0;" parent="ZKtt7pXRlVkyNbNoVnik-294" vertex="1">
          <mxGeometry x="94" width="55" height="64" as="geometry" />
        </mxCell>
        <mxCell id="ZKtt7pXRlVkyNbNoVnik-297" value="" style="swimlane;connectable=0;startSize=0;html=1;whiteSpace=wrap;collapsible=0;recursiveResize=0;expand=0;pointerEvents=0;" parent="ZKtt7pXRlVkyNbNoVnik-294" vertex="1">
          <mxGeometry x="149" width="54" height="64" as="geometry" />
        </mxCell>
        <mxCell id="ZKtt7pXRlVkyNbNoVnik-298" value="" style="group" parent="ZKtt7pXRlVkyNbNoVnik-313" vertex="1" connectable="0">
          <mxGeometry x="73" y="60" width="203" height="230" as="geometry" />
        </mxCell>
        <mxCell id="ZKtt7pXRlVkyNbNoVnik-299" value="" style="rounded=0;whiteSpace=wrap;html=1;fontSize=12;fillColor=#FFFFFF;" parent="ZKtt7pXRlVkyNbNoVnik-298" vertex="1">
          <mxGeometry width="203" height="230" as="geometry" />
        </mxCell>
        <mxCell id="ZKtt7pXRlVkyNbNoVnik-300" value="&lt;font color=&quot;#000000&quot;&gt;Longitude&lt;/font&gt;" style="shape=table;childLayout=tableLayout;rowLines=0;columnLines=0;startSize=40;html=1;whiteSpace=wrap;collapsible=0;recursiveResize=0;expand=0;pointerEvents=0;fontStyle=1;align=center;fontSize=12;fontColor=#006600;fillColor=#FFFFFF;" parent="ZKtt7pXRlVkyNbNoVnik-298" vertex="1">
          <mxGeometry width="203" height="230" as="geometry" />
        </mxCell>
        <mxCell id="ZKtt7pXRlVkyNbNoVnik-301" value="P 0" style="swimlane;horizontal=0;points=[[0,0.5],[1,0.5]];portConstraint=eastwest;startSize=40;html=1;whiteSpace=wrap;collapsible=0;recursiveResize=0;expand=0;pointerEvents=0;fontStyle=1" parent="ZKtt7pXRlVkyNbNoVnik-300" vertex="1">
          <mxGeometry y="40" width="203" height="64" as="geometry" />
        </mxCell>
        <mxCell id="ZKtt7pXRlVkyNbNoVnik-302" value="t = 0" style="swimlane;connectable=0;startSize=30;html=1;whiteSpace=wrap;collapsible=0;recursiveResize=0;expand=0;pointerEvents=0;" parent="ZKtt7pXRlVkyNbNoVnik-301" vertex="1">
          <mxGeometry x="40" width="54" height="64" as="geometry" />
        </mxCell>
        <mxCell id="ZKtt7pXRlVkyNbNoVnik-303" value="t = 1" style="swimlane;connectable=0;startSize=30;html=1;whiteSpace=wrap;collapsible=0;recursiveResize=0;expand=0;pointerEvents=0;" parent="ZKtt7pXRlVkyNbNoVnik-301" vertex="1">
          <mxGeometry x="94" width="55" height="64" as="geometry" />
        </mxCell>
        <mxCell id="ZKtt7pXRlVkyNbNoVnik-304" value="t = 2" style="swimlane;connectable=0;startSize=30;html=1;whiteSpace=wrap;collapsible=0;recursiveResize=0;expand=0;pointerEvents=0;" parent="ZKtt7pXRlVkyNbNoVnik-301" vertex="1">
          <mxGeometry x="149" width="54" height="64" as="geometry" />
        </mxCell>
        <mxCell id="ZKtt7pXRlVkyNbNoVnik-305" value="P 1" style="swimlane;horizontal=0;points=[[0,0.5],[1,0.5]];portConstraint=eastwest;startSize=40;html=1;whiteSpace=wrap;collapsible=0;recursiveResize=0;expand=0;pointerEvents=0;" parent="ZKtt7pXRlVkyNbNoVnik-300" vertex="1">
          <mxGeometry y="104" width="203" height="62" as="geometry" />
        </mxCell>
        <mxCell id="ZKtt7pXRlVkyNbNoVnik-306" value="" style="swimlane;connectable=0;startSize=0;html=1;whiteSpace=wrap;collapsible=0;recursiveResize=0;expand=0;pointerEvents=0;" parent="ZKtt7pXRlVkyNbNoVnik-305" vertex="1">
          <mxGeometry x="40" width="54" height="62" as="geometry" />
        </mxCell>
        <mxCell id="ZKtt7pXRlVkyNbNoVnik-307" value="" style="swimlane;connectable=0;startSize=0;html=1;whiteSpace=wrap;collapsible=0;recursiveResize=0;expand=0;pointerEvents=0;" parent="ZKtt7pXRlVkyNbNoVnik-305" vertex="1">
          <mxGeometry x="94" width="55" height="62" as="geometry" />
        </mxCell>
        <mxCell id="ZKtt7pXRlVkyNbNoVnik-308" value="" style="swimlane;connectable=0;startSize=0;html=1;whiteSpace=wrap;collapsible=0;recursiveResize=0;expand=0;pointerEvents=0;" parent="ZKtt7pXRlVkyNbNoVnik-305" vertex="1">
          <mxGeometry x="149" width="54" height="62" as="geometry" />
        </mxCell>
        <mxCell id="ZKtt7pXRlVkyNbNoVnik-309" value="P 2" style="swimlane;horizontal=0;points=[[0,0.5],[1,0.5]];portConstraint=eastwest;startSize=40;html=1;whiteSpace=wrap;collapsible=0;recursiveResize=0;expand=0;pointerEvents=0;" parent="ZKtt7pXRlVkyNbNoVnik-300" vertex="1">
          <mxGeometry y="166" width="203" height="64" as="geometry" />
        </mxCell>
        <mxCell id="ZKtt7pXRlVkyNbNoVnik-310" value="" style="swimlane;connectable=0;startSize=0;html=1;whiteSpace=wrap;collapsible=0;recursiveResize=0;expand=0;pointerEvents=0;" parent="ZKtt7pXRlVkyNbNoVnik-309" vertex="1">
          <mxGeometry x="40" width="54" height="64" as="geometry" />
        </mxCell>
        <mxCell id="ZKtt7pXRlVkyNbNoVnik-311" value="" style="swimlane;connectable=0;startSize=0;html=1;whiteSpace=wrap;collapsible=0;recursiveResize=0;expand=0;pointerEvents=0;" parent="ZKtt7pXRlVkyNbNoVnik-309" vertex="1">
          <mxGeometry x="94" width="55" height="64" as="geometry" />
        </mxCell>
        <mxCell id="ZKtt7pXRlVkyNbNoVnik-312" value="" style="swimlane;connectable=0;startSize=0;html=1;whiteSpace=wrap;collapsible=0;recursiveResize=0;expand=0;pointerEvents=0;" parent="ZKtt7pXRlVkyNbNoVnik-309" vertex="1">
          <mxGeometry x="149" width="54" height="64" as="geometry" />
        </mxCell>
        <mxCell id="M_Ex96TDXXYd0xyrgzXf-16" value="" style="group" vertex="1" connectable="0" parent="M_Ex96TDXXYd0xyrgzXf-31">
          <mxGeometry x="112.75999999999999" y="90" width="203" height="230" as="geometry" />
        </mxCell>
        <mxCell id="M_Ex96TDXXYd0xyrgzXf-17" value="" style="rounded=0;whiteSpace=wrap;html=1;fontSize=12;fillColor=#FFFFFF;" vertex="1" parent="M_Ex96TDXXYd0xyrgzXf-16">
          <mxGeometry width="203" height="230" as="geometry" />
        </mxCell>
        <mxCell id="M_Ex96TDXXYd0xyrgzXf-18" value="&lt;font color=&quot;#000000&quot;&gt;Time&lt;/font&gt;" style="shape=table;childLayout=tableLayout;rowLines=0;columnLines=0;startSize=40;html=1;whiteSpace=wrap;collapsible=0;recursiveResize=0;expand=0;pointerEvents=0;fontStyle=1;align=center;fontSize=12;fontColor=#006600;fillColor=#FFFFFF;" vertex="1" parent="M_Ex96TDXXYd0xyrgzXf-16">
          <mxGeometry width="203" height="230" as="geometry" />
        </mxCell>
        <mxCell id="M_Ex96TDXXYd0xyrgzXf-19" value="P 0" style="swimlane;horizontal=0;points=[[0,0.5],[1,0.5]];portConstraint=eastwest;startSize=40;html=1;whiteSpace=wrap;collapsible=0;recursiveResize=0;expand=0;pointerEvents=0;fontStyle=1" vertex="1" parent="M_Ex96TDXXYd0xyrgzXf-18">
          <mxGeometry y="40" width="203" height="64" as="geometry" />
        </mxCell>
        <mxCell id="M_Ex96TDXXYd0xyrgzXf-20" value="t = 0" style="swimlane;connectable=0;startSize=30;html=1;whiteSpace=wrap;collapsible=0;recursiveResize=0;expand=0;pointerEvents=0;" vertex="1" parent="M_Ex96TDXXYd0xyrgzXf-19">
          <mxGeometry x="40" width="54" height="64" as="geometry" />
        </mxCell>
        <mxCell id="M_Ex96TDXXYd0xyrgzXf-21" value="t = 1" style="swimlane;connectable=0;startSize=30;html=1;whiteSpace=wrap;collapsible=0;recursiveResize=0;expand=0;pointerEvents=0;" vertex="1" parent="M_Ex96TDXXYd0xyrgzXf-19">
          <mxGeometry x="94" width="55" height="64" as="geometry" />
        </mxCell>
        <mxCell id="M_Ex96TDXXYd0xyrgzXf-22" value="t = 2" style="swimlane;connectable=0;startSize=30;html=1;whiteSpace=wrap;collapsible=0;recursiveResize=0;expand=0;pointerEvents=0;" vertex="1" parent="M_Ex96TDXXYd0xyrgzXf-19">
          <mxGeometry x="149" width="54" height="64" as="geometry" />
        </mxCell>
        <mxCell id="M_Ex96TDXXYd0xyrgzXf-23" value="P 1" style="swimlane;horizontal=0;points=[[0,0.5],[1,0.5]];portConstraint=eastwest;startSize=40;html=1;whiteSpace=wrap;collapsible=0;recursiveResize=0;expand=0;pointerEvents=0;" vertex="1" parent="M_Ex96TDXXYd0xyrgzXf-18">
          <mxGeometry y="104" width="203" height="62" as="geometry" />
        </mxCell>
        <mxCell id="M_Ex96TDXXYd0xyrgzXf-24" value="" style="swimlane;connectable=0;startSize=0;html=1;whiteSpace=wrap;collapsible=0;recursiveResize=0;expand=0;pointerEvents=0;" vertex="1" parent="M_Ex96TDXXYd0xyrgzXf-23">
          <mxGeometry x="40" width="54" height="62" as="geometry" />
        </mxCell>
        <mxCell id="M_Ex96TDXXYd0xyrgzXf-25" value="" style="swimlane;connectable=0;startSize=0;html=1;whiteSpace=wrap;collapsible=0;recursiveResize=0;expand=0;pointerEvents=0;" vertex="1" parent="M_Ex96TDXXYd0xyrgzXf-23">
          <mxGeometry x="94" width="55" height="62" as="geometry" />
        </mxCell>
        <mxCell id="M_Ex96TDXXYd0xyrgzXf-26" value="" style="swimlane;connectable=0;startSize=0;html=1;whiteSpace=wrap;collapsible=0;recursiveResize=0;expand=0;pointerEvents=0;" vertex="1" parent="M_Ex96TDXXYd0xyrgzXf-23">
          <mxGeometry x="149" width="54" height="62" as="geometry" />
        </mxCell>
        <mxCell id="M_Ex96TDXXYd0xyrgzXf-27" value="P 2" style="swimlane;horizontal=0;points=[[0,0.5],[1,0.5]];portConstraint=eastwest;startSize=40;html=1;whiteSpace=wrap;collapsible=0;recursiveResize=0;expand=0;pointerEvents=0;" vertex="1" parent="M_Ex96TDXXYd0xyrgzXf-18">
          <mxGeometry y="166" width="203" height="64" as="geometry" />
        </mxCell>
        <mxCell id="M_Ex96TDXXYd0xyrgzXf-28" value="" style="swimlane;connectable=0;startSize=0;html=1;whiteSpace=wrap;collapsible=0;recursiveResize=0;expand=0;pointerEvents=0;" vertex="1" parent="M_Ex96TDXXYd0xyrgzXf-27">
          <mxGeometry x="40" width="54" height="64" as="geometry" />
        </mxCell>
        <mxCell id="M_Ex96TDXXYd0xyrgzXf-29" value="" style="swimlane;connectable=0;startSize=0;html=1;whiteSpace=wrap;collapsible=0;recursiveResize=0;expand=0;pointerEvents=0;" vertex="1" parent="M_Ex96TDXXYd0xyrgzXf-27">
          <mxGeometry x="94" width="55" height="64" as="geometry" />
        </mxCell>
        <mxCell id="M_Ex96TDXXYd0xyrgzXf-30" value="" style="swimlane;connectable=0;startSize=0;html=1;whiteSpace=wrap;collapsible=0;recursiveResize=0;expand=0;pointerEvents=0;" vertex="1" parent="M_Ex96TDXXYd0xyrgzXf-27">
          <mxGeometry x="149" width="54" height="64" as="geometry" />
        </mxCell>
      </root>
    </mxGraphModel>
  </diagram>
</mxfile>
